<?xml version="1.0" encoding="utf-8"?>
<!-- Generator: Adobe Illustrator 26.3.1, SVG Export Plug-In . SVG Version: 6.00 Build 0)  -->
<svg version="1.1" id="Layer_1" xmlns="http://www.w3.org/2000/svg" xmlns:xlink="http://www.w3.org/1999/xlink" x="0px" y="0px"
	 viewBox="0 0 100 100" style="enable-background:new 0 0 100 100;" xml:space="preserve">
<path d="M100,56v5c0,5.3-2.1,10.4-5.9,14.1C90.4,78.9,85.3,81,80,81H50V71h30c2.7,0,5.2-1.1,7.1-2.9c1.9-1.9,2.9-4.4,2.9-7.1v-5
	c0-2.7-1.1-5.2-2.9-7.1C85.2,47.1,82.7,46,80,46H17.1l10,10L20,63.1L1.5,44.6C0.5,43.6,0,42.4,0,41s0.5-2.6,1.5-3.5L20,19l7.1,7.1
	l-10,10H80c5.3,0,10.4,2.1,14.1,5.9C97.9,45.6,100,50.7,100,56z"/>
</svg>
