<?xml version="1.0" encoding="utf-8"?>
<!-- Generator: Adobe Illustrator 26.3.1, SVG Export Plug-In . SVG Version: 6.00 Build 0)  -->
<svg version="1.1" id="Layer_1" xmlns="http://www.w3.org/2000/svg" xmlns:xlink="http://www.w3.org/1999/xlink" x="0px" y="0px"
	 viewBox="0 0 500 500" style="enable-background:new 0 0 500 500;" xml:space="preserve">
<style type="text/css">
	.st0{fill:#17325A;}
	.st1{fill:#17325A;stroke:#010101;stroke-width:3.12;stroke-miterlimit:10;}
	.st2{fill:#010101;}
	.st3{fill:#0B6D38;}
	.st4{fill:#3958A7;stroke:#010101;stroke-width:3.12;stroke-miterlimit:10;}
	.st5{fill:#989898;}
	.st6{fill:#847B7B;}
	.st7{fill:#FFFFFF;}
</style>
<g>
	<path id="color1_00000170264065816754782800000000323450583992206730_" class="st0" d="M442.39,233.7l-67.4-58.3
		c0.2-18.6,0.4-37.1,0.6-55.7c0-9.32-8.14-16.8-17.67-15.69c-8.03,0.93-13.93,8.04-13.93,16.13v28.56l-66.5-57.5
		c-15.8-13.6-39.5-13.6-55.3,0L57.59,233.7c-6.6,5.7-7.3,15.7-1.6,22.3c5.7,6.6,15.7,7.3,22.2,1.6l164.8-142.5
		c4-3.5,10.1-3.5,14.1,0l164.8,142.4c3,2.6,6.6,3.8,10.3,3.8c4.4,0,8.8-1.9,11.9-5.5C449.69,249.3,448.99,239.4,442.39,233.7
		 M330.4,306.27c-3.9,0.1-7.1-3.1-7-7c0-3.7,3.2-6.9,6.9-7c3.9-0.1,7.1,3.1,7.1,7S334.2,306.27,330.4,306.27z M295.5,280.27
		c0-3.9-3.3-7.1-7.2-7c-3.7,0-6.8,3.2-6.9,6.9c-0.1,3.9,3.1,7.1,7.1,7.1S295.5,284.17,295.5,280.27L295.5,280.27z M274.1,392.17
		c0-3.9-3.3-7.1-7.2-7c-3.7,0-6.8,3.2-6.9,6.9c-0.1,3.9,3.1,7.2,7.1,7.1C270.9,399.17,274.1,396.07,274.1,392.17L274.1,392.17z
		 M338.31,391.05c-0.43-2.75-2.55-5.03-5.26-5.68c-4.59-1.1-8.75,2.52-8.75,6.8c0,3.9,3.2,7.1,7.1,7
		C335.56,399.17,339,395.46,338.31,391.05z M380.9,280.17c0-3.9-3.3-7.1-7.2-7c-3.7,0.1-6.9,3.3-6.9,7c-0.1,3.9,3.1,7.1,7,7.1
		S380.8,284.17,380.9,280.17z M265.74,140.5c-9.9-8.6-24.69-8.6-34.69,0L104.41,250.11c-1.54,1.33-2.42,3.26-2.42,5.29V419h55v-40.8
		l-37-37.1v-26.5c-5.47-1.19-9.61-6.3-9.32-12.22c0.29-5.92,5.41-11.1,11.53-11.24c6.67-0.15,12.12,5.19,12.12,11.83
		c0,5.67-4.04,10.48-9.33,11.63v24.3l37,37.1v43h17v-29.8c-5.41-1.33-9.52-6.44-9.32-12.53c0.2-6.09,5.27-11.64,11.39-11.86
		c6.73-0.25,12.25,5.34,12.25,12.29c0,5.9-4.04,10.9-9.33,12.1V419h16v-99.8c-5.38-1.3-9.33-6.2-9.33-12.1
		c0-6.94,5.35-12.46,11.94-12.4c6.12,0.06,11.26,5.18,11.68,11.53s-3.75,11.71-9.3,12.97V419h17v-76.4l22-22.2v-28.61
		c-5.41-1.26-9.37-6.02-9.33-11.73c0.05-6.19,5.08-11.43,11.27-11.72c6.8-0.32,12.38,5.09,12.38,11.82c0,5.67-4.04,10.48-9.33,11.63
		v30.81l-22,22.2V419h16v-50.9l22-21.6v-11.11c-5.38-1.15-9.33-5.87-9.33-11.54c0-7.11,6.07-12.66,13.23-11.85
		c4.28,0.49,7.99,3.4,9.57,7.42c2.86,7.27-1.82,14.51-8.47,15.96v13.31l-22,21.6V419h17v-14.5c-5.33-1.21-9.29-6.17-9.23-12.13
		c0.06-6.44,5.11-11.88,11.3-12.16c6.78-0.31,12.36,5.3,12.36,12.29c0,5.9-4.04,10.9-9.42,12.1V419h16V292.6
		c-5.41-1.33-9.52-6.44-9.32-12.53c0.2-6.09,5.27-11.64,11.39-11.86c6.73-0.25,12.25,5.34,12.25,12.29c0,5.9-4.04,10.9-9.33,12.1
		V419h16v-43l21-20.6v-44.51c-5.41-1.26-9.38-6.02-9.33-11.73c0.05-6.19,5.08-11.43,11.27-11.72c6.8-0.32,12.38,5.09,12.38,11.82
		c0,5.67-4.04,10.48-9.33,11.63v46.81l-20,20.5V419h16v-14.4c-5.41-1.33-9.52-6.44-9.32-12.53c0.2-6.09,5.27-11.64,11.39-11.86
		c6.73-0.25,12.25,5.34,12.25,12.29c0,5.9-4.04,10.9-9.33,12.1V419h16v-92.3l21-21v-14.37c-5.67-1.34-9.84-6.81-8.83-13.08
		c0.76-4.69,4.49-8.49,9.18-9.32c7.21-1.29,13.44,4.32,13.64,11.3c0,5.46-3.89,10.09-8.98,11.2v16.48l-20,21V419l39,0V255.41
		c0-2.03-0.88-3.97-2.42-5.3L265.74,140.5z M188.1,376.77c0-4.4-4-7.8-8.5-6.9c-2.8,0.6-5,2.8-5.5,5.5c-0.9,4.5,2.5,8.5,7,8.4
		C184.9,383.77,188.1,380.67,188.1,376.77z M129.49,303.43c0.18-3.68-2.69-6.92-6.35-7.32c-4.13-0.45-7.64,2.92-7.74,6.86
		c-0.1,3.9,3.1,7.1,7.1,7.1C126.18,310.07,129.3,307.16,129.49,303.43z M253.1,280.27c0-3.9-3.2-7.1-7.1-7c-3.7,0-6.8,3.2-6.9,6.9
		c-0.1,3.9,3.1,7.1,7,7.1S253.1,284.17,253.1,280.27z M274.09,324.03c0.19-3.68-2.69-6.92-6.35-7.32c-4.13-0.45-7.64,2.92-7.74,6.86
		c-0.1,4,3.1,7.2,7.1,7.1C270.78,330.67,273.9,327.76,274.09,324.03z M209.5,306.77c0-3.9-3.3-7.1-7.2-7c-3.7,0-6.8,3.2-6.9,6.9
		c0,3.9,3.2,7.2,7.1,7.1C206.3,313.77,209.5,310.67,209.5,306.77L209.5,306.77z"/>
</g>
</svg>
