<?xml version="1.0" encoding="utf-8"?>
<!-- Generator: Adobe Illustrator 26.3.1, SVG Export Plug-In . SVG Version: 6.00 Build 0)  -->
<svg version="1.1" id="Layer_1" xmlns="http://www.w3.org/2000/svg" xmlns:xlink="http://www.w3.org/1999/xlink" x="0px" y="0px"
	 viewBox="0 0 500 500" style="enable-background:new 0 0 500 500;" xml:space="preserve">
<style type="text/css">
	.st0{fill:#17325A;}
	.st1{fill:#17325A;stroke:#010101;stroke-width:3.12;stroke-miterlimit:10;}
	.st2{fill:#010101;}
	.st3{fill:#0B6D38;}
	.st4{fill:#3958A7;stroke:#010101;stroke-width:3.12;stroke-miterlimit:10;}
	.st5{fill:#989898;}
	.st6{fill:#847B7B;}
	.st7{fill:#FFFFFF;}
</style>
<g>
	<path id="color1_00000076600869472057110830000015042119477413610640_" class="st0" d="M415.25,440.09
		c-7.28,7.03-18.96,5.7-28.19,5.26c-14.7-0.7-29.39-1.32-44.1-1.51c-41.19-0.52-82.37-0.35-123.55-0.11
		c-24.91,0.15-44.51,2.53-69.41,2.01c-10.64-0.22-23.45,3.04-32.72-1.22c-15.61-7.18-14.53-37.67-14.41-51.16
		c0.3-33.2-1.59-64.67-1.59-98.06c-0.01-52.1,0-104.21,0-156.33c0-16.77-1.14-33.54-0.77-50.31c0.28-12.27-0.41-29.99,13.68-33.21
		c21.46-4.9,43.99-4.86,65.59-3.28c22.79,1.67,42.97-1.14,65.79-0.95c25.26,0.2,53.12,1.42,78.37,1.41
		c21.96-0.01,37.08-1.98,58.99-1.23c11.81,0.41,31.69,6.84,36.78,18.61c1.89,4.38,3.45,21.52,2.01,33.17
		c-2.49,20.07-3.49,40.9-2.89,61.11c1.31,43.58,1.86,87.25,1,130.83c-0.43,21.9,0.93,43.78-0.14,65.67
		c-1.07,22.06,2.7,44.72,0.88,66.54C420.08,433.23,418.15,437.3,415.25,440.09z"/>
	<path id="color2_00000038377517776611312320000001055220543337050283_" class="st7" d="M404.25,437.02
		c-7.08,6.88-18.44,5.57-27.41,5.14c-14.3-0.68-28.57-1.29-42.89-1.47c-40.04-0.51-80.09-0.34-120.14-0.11
		c-24.21,0.14-43.28,2.47-67.48,1.97c-10.35-0.22-22.8,2.97-31.82-1.2c-15.18-7.03-14.13-36.86-14.01-50.06
		c0.29-32.49-1.55-63.29-1.55-95.97c0-51,0-101.99,0-153.01c0-16.41-1.1-32.82-0.74-49.24c0.27-12.01-0.4-29.36,13.3-32.51
		c20.88-4.8,42.78-4.76,63.78-3.21c22.16,1.64,41.79-1.11,63.97-0.93c24.56,0.2,51.65,1.39,76.2,1.38
		c21.35-0.01,36.06-1.94,57.36-1.21c11.49,0.4,30.82,6.69,35.77,18.21c1.84,4.29,3.35,21.06,1.95,32.46
		c-2.42,19.65-3.39,40.03-2.8,59.81c1.27,42.65,1.81,85.39,0.97,128.04c-0.42,21.44,0.9,42.85-0.14,64.28
		c-1.05,21.59,2.62,43.77,0.85,65.11C408.95,430.3,407.06,434.29,404.25,437.02z"/>
	<path id="color1_00000062912999295482368540000005143188653832949423_" class="st0" d="M248.83,247.24c-0.32,0-9.02-3.47-9.02-3.47
		v-32.19h1.17c5.41,0,9.83,4.42,9.83,9.83v4.17c0,1.88,1.83,3.77,3.65,3.77c1.83,0,3.65-1.57,3.65-3.77h-0.31v-4.4
		c0-9.74-7.61-17.6-17.04-17.6h-0.96v-8.24c0-1.9-2-3.8-4-3.8s-4,1.58-4,3.8v8.24h-2.13c-10.03,0-17.87,7.89-17.87,17.67v9.47
		c0,5.36,3.13,10.1,10.34,14.2l10.66,4.1v31.56h-2.34c-5.99,0-10.66-4.48-10.66-9.92v-4.48c0-1.92-2-3.84-4-3.84s-4,1.6-4,3.84v4.48
		c0.33,9.92,8.67,17.92,19,17.92h2v8.88c0,1.91,2,3.81,4,3.81c2,0,4-1.58,4-3.81v-8.88h-0.04c9.99,0,18.04-7.89,18.04-17.67v-9.46
		C258.81,256.39,255.6,251.34,248.83,247.24z M231.81,240.07l-6.46-2.54c-2.46-1.59-5.54-4.44-5.54-7.3v-9.52
		c0-5.39,4.31-9.83,9.54-10.15h2.46V240.07z M249.81,270.74c0,5.4-4.24,9.83-9.39,9.83h-0.61v-28.86l4.25,1.9
		c3.63,2.54,5.75,5.39,5.75,7.61V270.74z M396.99,69.87c-5.08-11.84-24.97-18.32-36.78-18.73c-21.91-0.76-37.04,1.23-58.99,1.24
		c-25.25,0.01-53.11-1.22-78.37-1.42c-22.82-0.18-43.01,2.64-65.79,0.95c-21.6-1.59-44.13-1.63-65.59,3.3
		c-14.09,3.23-13.4,21.08-13.68,33.43c-0.38,16.89,0.77,33.76,0.77,50.64c0,52.46-0.01,104.91,0,157.35
		c0,33.61,1.89,65.28,1.59,98.7c-0.12,13.57-1.2,44.26,14.41,51.48c9.28,4.29,22.08,1.01,32.72,1.23c24.9,0.52,44.5-1.88,69.41-2.02
		c41.18-0.24,82.36-0.41,123.55,0.11c14.72,0.19,29.41,0.81,44.11,1.52c9.23,0.44,20.9,1.79,28.19-5.29
		c2.89-2.81,4.83-6.92,5.32-12.85c1.82-21.96-1.95-44.77-0.88-66.97c1.06-22.03-0.3-44.05,0.14-66.1c0.86-43.87,0.3-87.82-1-131.68
		c-0.61-20.34,0.39-41.3,2.88-61.51C400.44,91.53,398.88,74.28,396.99,69.87z M181.81,149.4c0.48-1.91,2.38-3.81,4.28-3.81
		s3.8,1.58,3.72,3.81v11.42c4.83-2.54,9.9-4.76,14.97-6.34c50.68-16.81,105.17,10.78,121.64,61.53c0.64,2.22-0.32,4.44-2.53,5.07
		c-0.32,0.32-0.95,0.32-1.27,0.32c-1.9,0-3.17-1.27-3.8-2.85c-1.9-6.03-4.76-12.05-7.92-17.44
		c-24.71-42.18-78.88-55.82-121.09-31.08v10.15c0.08,1.91-1.5,3.81-3.72,3.81s-3.8-1.9-4.28-3.81V149.4z M128.81,215.35v51.3
		c0,2-2,4-4,4s-4-1.67-4-4v-62.07c0-0.96,0.32-2.22,1.27-2.86c1.91-1.59,4.44-1.27,5.71,0.32l13.02,15.57v-87.03l-13.33,21.35
		c-1,1.34-2.33,2-3.67,2c-1,0-1.67-0.33-2.33-0.66c-1.99-1.34-2.66-3.67-1.33-5.68l21.33-34.03c0.33-0.66,1.33-1.67,3.33-1.67
		c1.33,0,2.67,0.67,3.33,1.67c0,0,23,32.03,23.33,32.37c1,2,0.33,4.67-1.67,5.67c-2,1-4.67,0.33-5.67-1.67l-15.33-21.02v99.15
		c0,1.59-0.96,3.18-2.54,3.82c-1.27,0.63-3.17,0.31-4.44-0.96L128.81,215.35z M280.82,331.13c-1.9,0.95-3.48,1.58-5.39,2.54
		c-48.15,22.2-105.49,0.95-127.66-47.57c-6.02-12.69-8.87-26.32-8.87-40.28c0-1.9,1.58-3.81,3.8-3.81c1.9,0,3.8,1.59,3.8,3.81
		c-0.31,13,2.54,25.37,7.92,37.1c0.64,1.59,1.58,2.85,2.22,4.44c23.12,43.45,76.66,59.94,120.06,36.79c2.22-1.27,5.7,0,6.34,1.91
		C283.66,327.96,282.72,330.18,280.82,331.13z M234.88,315.9c-38.65,0-69.69-31.08-69.69-69.77s31.04-69.78,69.69-69.78
		c38.65,0,69.69,31.08,69.69,69.78S273.53,315.9,234.88,315.9z M335.33,353.84l-20.16,32.67c-0.32,0.64-1.28,1.6-3.2,1.6
		c-1.6,0-2.88-0.64-3.52-1.93l-21.75-34.27c-1.28-1.93-0.64-4.17,1.28-5.44c1.92-1.28,4.16-0.64,5.44,1.28l14.4,22.74v-90
		c0-0.95,0.32-2.22,1.27-2.85c1.91-1.58,4.45-1.27,5.72,0.32l13.02,15.54v-63.11c0-1.9,1.59-3.81,3.81-3.81c0,0,0.03,0,0.07,0
		c2.22,0,4.12,1.91,4.12,4.12v73.9c0,0.95-0.32,2.22-1.27,2.85c-1.91,1.58-4.45,1.27-5.72-0.32l-13.01-15.54v78.58l12.79-20.5
		c0.96-1.93,3.52-2.57,5.44-1.28C335.96,349.36,336.61,351.92,335.33,353.84z M357.81,294.65c0,1.91-2,3.81-4,3.81
		c-2,0-4-1.58-4-3.81v-62.79c0-1.91,1.67-3.81,4-3.81c2.33,0,4,1.58,4,3.81V294.65z"/>
</g>
</svg>
