<?xml version="1.0" encoding="utf-8"?>
<!-- Generator: Adobe Illustrator 26.3.1, SVG Export Plug-In . SVG Version: 6.00 Build 0)  -->
<svg version="1.1" id="Layer_1" xmlns="http://www.w3.org/2000/svg" xmlns:xlink="http://www.w3.org/1999/xlink" x="0px" y="0px"
	 viewBox="0 0 500 500" style="enable-background:new 0 0 500 500;" xml:space="preserve">
<style type="text/css">
	.st0{fill:#17325A;}
	.st1{fill:#17325A;stroke:#010101;stroke-width:3.12;stroke-miterlimit:10;}
	.st2{fill:#010101;}
	.st3{fill:#0B6D38;}
	.st4{fill:#3958A7;stroke:#010101;stroke-width:3.12;stroke-miterlimit:10;}
	.st5{fill:#989898;}
	.st6{fill:#847B7B;}
	.st7{fill:#FFFFFF;}
</style>
<g>
	<path id="color1_00000078733284984368016570000017415320239918179983_" class="st0" d="M298.28,368.9h-97.56
		c-3.33,0-6.31-2.4-6.69-5.71c-0.46-3.95,2.6-7.29,6.45-7.29h97.8c3.6,0,6.5,2.9,6.5,6.5C304.88,366,301.88,368.9,298.28,368.9
		L298.28,368.9z M298.28,395.9h-97.56c-3.33,0-6.31-2.4-6.69-5.71c-0.46-3.95,2.6-7.29,6.45-7.29h97.8c3.6,0,6.5,2.9,6.5,6.5
		C304.88,393,301.88,395.9,298.28,395.9L298.28,395.9z M303.68,413.9c-1.1-3.1-5.08-5-9.06-4.1c-3.27,0.74-5.36,6.1-5.36,6.1H209.4
		c-0.04-2.83-2.12-5.4-5.38-6.22c-3.88-0.9-7.86,1-8.98,4.61c-0.77,2.31-1.1,4.91-1.1,7.52c0,15.35,13.85,28.08,31.13,28.08h48.34
		c17.25,0,31.48-12.88,31.59-28.39c0-2.33-0.45-4.97-1.12-7.61H303.68z M250.05,50.1c-65.3,0-118.4,53-118.5,118.2
		c0,30.9,11.7,59.8,33.6,82.3l11.4,42.3c0.4,22.4,18.6,40,41.8,40h63.3c23.1,0,41.4-17.5,42.1-39.6l11.4-43
		c21.6-22.1,33.3-51.4,33.3-82C368.45,102.8,315.35,50.1,250.05,50.1z M324.65,242.11c-0.6,1-1.3,1.9-1.6,2.9l-12.4,45.25
		c-0.3,0.6-0.3,1-0.3,1.6c0,15.62-12.7,28.03-28.7,28.03h-24.1v-83.83c0,0,1.94,0.03,2.8,0.03c10.8,0,32.3-2.9,53.2-21.2
		c26.1-23.4,27.1-56.6,26.7-66.4c0.4-1,0.4-2.3,0.1-3.2c-0.6-1.9-2-3.6-3.9-4.2c-0.3,0-0.7-0.3-1-0.3c-1-0.3-1.6-0.3-2.6-0.9h-3.3
		c-11.7,0.6-42.1,3.2-63.9,27.3c-7.27,8.16-12.13,16.37-15.36,24.05c-3.23-7.61-8.06-15.71-15.24-23.75
		c-21.5-24.1-63.9-26.6-63.9-26.6h-2.5c-1-0.3-2.3-0.3-3.3,0c-1.3,0.3-2.3,1-2.9,1.6c-1,0.6-1.7,1.6-2,2.9c-0.3,0.9-0.3,2.2,0,3.2
		c-0.4,9.81,0.6,43.05,26.7,66.47c20.5,18.62,41.7,21.22,52.8,21.22c1.2,0,2.74-0.14,4.6-0.24v83.83h-26.2
		c-16,0-28.7-12.41-28.7-28.03c0-0.6-0.3-1-0.3-1.6l-12.1-44.95c-0.3-1-0.9-2.3-1.6-2.9c-19.9-19.82-31-46.25-31-74.28
		c0-57.96,47.3-105.22,105.4-105.22s105.4,47.25,105.3,105.22C355.35,195.86,344.55,222.19,324.65,242.11L324.65,242.11z
		 M279.95,115.6c-0.1,1-0.2,1.9-0.4,2.9c-0.2,1-0.4,1.9-0.7,2.8c-0.3,0.9-0.6,1.9-1,2.8s-0.8,1.8-1.3,2.7c-0.5,0.9-1,1.7-1.5,2.5
		c-0.5,0.8-1.1,1.6-1.8,2.4c-0.6,0.8-1.3,1.5-2,2.2c-0.7,0.7-1.4,1.4-2.2,2c-0.8,0.6-1.5,1.2-2.4,1.8c-0.8,0.5-1.7,1.1-2.5,1.5
		c-0.9,0.5-1.8,0.9-2.7,1.3s-1.8,0.7-2.8,1c-0.9,0.3-1.9,0.5-2.9,0.7s-1.9,0.3-2.9,0.4c-1,0.1-2,0.1-2.9,0.1s-2-0.1-2.9-0.1
		c-1-0.1-1.9-0.2-2.9-0.4s-1.9-0.4-2.9-0.7c-0.9-0.3-1.9-0.6-2.8-1c-0.9-0.4-1.8-0.8-2.7-1.3c-0.9-0.5-1.7-1-2.5-1.5
		c-0.8-0.6-1.6-1.1-2.4-1.8s-1.5-1.3-2.2-2s-1.4-1.4-2-2.2s-1.2-1.6-1.8-2.4c-0.6-0.8-1.1-1.7-1.5-2.5c-0.5-0.9-0.9-1.8-1.3-2.7
		c-0.4-0.9-0.7-1.8-1-2.8c-0.3-0.9-0.5-1.9-0.7-2.8c-0.2-1-0.3-1.9-0.4-2.9c-0.1-1-0.1-1.9-0.1-2.9s0.1-2,0.1-2.9
		c0.1-1,0.2-1.9,0.4-2.9s0.4-1.9,0.7-2.8c0.3-0.9,0.6-1.9,1-2.8c0.4-0.9,0.8-1.8,1.3-2.7c0.5-0.9,1-1.7,1.5-2.5
		c0.5-0.8,1.1-1.6,1.8-2.4c0.6-0.8,1.3-1.5,2-2.2s1.4-1.3,2.2-2s1.6-1.2,2.4-1.8c0.8-0.5,1.7-1.1,2.5-1.5c0.8-0.4,1.8-0.9,2.7-1.3
		c0.9-0.4,1.8-0.7,2.8-1c0.9-0.3,1.9-0.5,2.9-0.7c1-0.2,1.9-0.3,2.9-0.4c1-0.1,2-0.2,2.9-0.2s2,0.1,2.9,0.2c1,0.1,1.9,0.2,2.9,0.4
		c1,0.2,1.9,0.4,2.9,0.7c0.9,0.3,1.9,0.6,2.8,1c0.9,0.4,1.8,0.8,2.7,1.3s1.7,1,2.5,1.5c0.8,0.6,1.6,1.1,2.4,1.8
		c0.8,0.6,1.5,1.3,2.2,2c0.7,0.7,1.4,1.4,2,2.2c0.6,0.8,1.2,1.6,1.8,2.4c0.5,0.8,1,1.7,1.5,2.5c0.5,0.9,0.9,1.8,1.3,2.7
		c0.4,0.9,0.7,1.8,1,2.8c0.3,0.9,0.5,1.9,0.7,2.8c0.2,1,0.3,1.9,0.4,2.9c0,0.9,0.1,1.9,0.1,2.9S280.05,114.7,279.95,115.6z"/>
</g>
</svg>
