<?xml version="1.0" encoding="utf-8"?>
<!-- Generator: Adobe Illustrator 26.3.1, SVG Export Plug-In . SVG Version: 6.00 Build 0)  -->
<svg version="1.1" id="Layer_1" xmlns="http://www.w3.org/2000/svg" xmlns:xlink="http://www.w3.org/1999/xlink" x="0px" y="0px"
	 viewBox="0 0 500 500" style="enable-background:new 0 0 500 500;" xml:space="preserve">
<style type="text/css">
	.st0{fill:#17325A;}
	.st1{fill:#17325A;stroke:#010101;stroke-width:3.12;stroke-miterlimit:10;}
	.st2{fill:#010101;}
	.st3{fill:#0B6D38;}
	.st4{fill:#3958A7;stroke:#010101;stroke-width:3.12;stroke-miterlimit:10;}
	.st5{fill:#989898;}
	.st6{fill:#847B7B;}
	.st7{fill:#FFFFFF;}
</style>
<g>
	<path id="color1_00000142861232012203288370000007368146155640841356_" class="st0" d="M244.82,117.15l0-59.46
		c0-2.2,1.68-4.66,3.79-5.28c3.8-1.12,7.21,1.64,7.21,5.25v59.69c0,3.92-4.49,7.12-8.46,4.61
		C245.74,120.92,244.82,119.07,244.82,117.15z M255.82,442.34v-59.56c0-2.47-1.94-5.04-4.36-5.52c-3.56-0.7-6.64,1.96-6.64,5.39
		v59.56c0,2.47,1.94,5.04,4.36,5.52C252.74,448.43,255.82,445.77,255.82,442.34z M115.05,244.8H54.88c-2.47,0-5.04,1.94-5.52,4.36
		c-0.7,3.56,1.96,6.64,5.39,6.64h60.5c3.42,0,5.94-3.06,5.3-6.61C120.1,246.76,117.53,244.8,115.05,244.8z M445.12,244.8h-60.24
		c-2.47,0-5.04,1.94-5.52,4.36c-0.7,3.56,1.96,6.64,5.39,6.64h60.5c3.43,0,6.08-3.07,5.39-6.64
		C450.17,246.74,447.59,244.8,445.12,244.8z M158.1,159.6c2.1-2.2,2.1-5.5-0.1-7.7l-42-41.4c-2.2-2.1-5.5-2.1-7.7,0.1
		c-2.1,2.2-2.1,5.5,0.1,7.7l42,41.4c1.1,1.1,2.4,1.5,3.8,1.5C155.6,161.2,157.1,160.6,158.1,159.6z M391.5,389.5
		c2-2.2,2-5.5-0.1-7.7l-42-41.4c-2.2-2-5.5-2-7.7,0.1c-2,2.2-2,5.5,0.1,7.7l42,41.4c1.1,1.1,2.4,1.5,3.8,1.5
		S390.4,390.6,391.5,389.5L391.5,389.5z M116.1,389.5l42-41.4c2.2-2,2.2-5.5,0.1-7.7c-2.1-2.2-5.5-2.2-7.7-0.1l-42,41.5
		c-2.2,2-2.2,5.5-0.1,7.7c1.1,1.1,2.5,1.6,3.9,1.6S115,390.6,116.1,389.5z M349.4,159.7l42-41.4c2.2-2.1,2.2-5.5,0.1-7.7
		c-2-2.2-5.5-2.2-7.7-0.1l-42,41.4c-2.2,2.1-2.2,5.5-0.1,7.7c1.1,1.1,2.5,1.6,3.9,1.6S348.4,160.6,349.4,159.7L349.4,159.7z
		 M200.1,131.6c2.7-1.2,4-4.3,2.9-7l-10.6-25.2c-1.2-2.7-4.3-4-7.1-2.9c-2.7,1.2-4,4.3-2.9,7l10.6,25.2c0.9,2.1,2.9,3.4,5,3.4
		C198.8,132,199.5,131.9,200.1,131.6z M314.5,403.6c2.7-1.2,4-4.3,2.9-7l-10.6-25.2c-1.2-2.7-4.3-4-7.1-2.9c-2.7,1.2-4,4.3-2.9,7
		l10.6,25.2c0.9,2,2.9,3.4,5,3.4C313.1,404.1,313.9,403.9,314.5,403.6z M101.2,316.6l25.6-10.5c2.8-1.1,4.1-4.3,2.9-7
		c-1.1-2.8-4.3-4.1-7-2.9l-25.6,10.5c-2.8,1.1-4.1,4.3-2.9,7c0.9,2.1,2.9,3.4,5,3.4C99.8,317,100.5,316.9,101.2,316.6z M377.3,204
		l25.6-10.5c2.8-1.1,4.1-4.3,2.9-7c-1.1-2.8-4.3-4.1-7-2.9L373.2,194c-2.8,1.1-4.1,4.3-2.9,7c0.9,2.1,2.9,3.4,5,3.4
		C376,204.3,376.6,204.2,377.3,204z M306.9,128.8l10.6-25.2c1.2-2.7-0.1-5.9-2.9-7c-2.8-1.2-5.9,0.1-7.1,2.9l-10.6,25.2
		c-1.2,2.7,0.1,5.9,2.9,7c0.6,0.3,1.4,0.4,2,0.4C304,132,306,130.8,306.9,128.8z M192.5,400.7l10.6-25.2c1.2-2.7-0.1-5.9-2.9-7
		c-2.8-1.2-5.9,0.1-7.1,2.9l-10.6,25.2c-1.2,2.7,0.1,5.9,2.9,7c0.6,0.3,1.4,0.4,2.1,0.4C189.6,404.1,191.6,402.8,192.5,400.7z
		 M129.8,200.9c1.1-2.8-0.2-5.9-2.9-7l-25.6-10.5c-2.8-1.1-5.9,0.2-7,2.9c-1.1,2.8,0.2,5.9,2.9,7l25.6,10.5c0.7,0.3,1.4,0.4,2.1,0.4
		C126.8,204.3,128.9,203,129.8,200.9L129.8,200.9z M405.9,313.6c1.1-2.8-0.2-5.9-2.9-7l-25.7-10.5c-2.8-1.1-5.9,0.2-7,2.9
		c-1.1,2.8,0.2,5.9,2.9,7l25.6,10.5c0.6,0.3,1.4,0.4,2,0.4C403,317,405,315.7,405.9,313.6z M353.82,244.63
		c-0.1-1.71-0.2-3.41-0.4-5.02c-0.2-1.61-0.4-3.31-0.6-5.02s-0.5-3.31-0.9-4.92c-0.3-1.61-0.7-3.31-1.09-4.92s-0.9-3.21-1.39-4.82
		c-0.5-1.61-0.99-3.21-1.59-4.82c-0.6-1.61-1.19-3.11-1.79-4.72c-0.6-1.61-1.29-3.11-2.09-4.62c-0.7-1.51-1.49-3.01-2.29-4.52
		c-0.8-1.51-1.59-2.91-2.49-4.42c-0.9-1.51-1.79-2.91-2.69-4.22c-0.9-1.41-1.89-2.81-2.88-4.12c-0.99-1.41-2.09-2.71-3.08-4.02
		c-1.09-1.3-2.19-2.61-3.28-3.81c-1.09-1.2-2.29-2.51-3.48-3.61c-1.19-1.2-2.39-2.31-3.68-3.51c-1.29-1.1-2.49-2.21-3.88-3.31
		s-2.69-2.11-3.98-3.11c-1.39-1-2.79-2.01-4.18-2.91c-1.39-0.9-2.88-1.81-4.28-2.71c-1.39-0.9-2.88-1.71-4.38-2.51
		c-1.49-0.8-2.98-1.61-4.58-2.31c-1.5-0.71-3.1-1.41-4.7-2.02c-1.54-0.58-3.08-1.16-4.61-1.75c-1.64-0.63-3.27-1.14-4.91-1.66
		c-1.59-0.5-3.28-0.9-4.87-1.3s-3.28-0.8-4.97-1.1c-1.69-0.3-3.28-0.6-4.97-0.9c-1.69-0.2-3.38-0.4-5.07-0.6
		c-1.64-0.19-3.27-0.29-4.91-0.39c-1.26-0.08-2.53-0.12-3.8-0.11c-2.17,0.01-4.34-0.03-6.51,0.1c-1.9,0.11-3.81,0.23-5.71,0.48
		c-1.62,0.22-3.25,0.37-4.87,0.58c-1.54,0.2-3.08,0.48-4.53,0.85c-1.69,0.3-3.28,0.7-4.97,1.1c-1.59,0.4-3.28,0.9-4.87,1.3
		c-1.83,0.58-3.65,1.15-5.48,1.88c-1.29,0.51-2.59,0.98-3.89,1.47c-1.66,0.62-3.2,1.34-4.85,2.07c-1.49,0.7-3.08,1.51-4.58,2.31
		c-1.49,0.8-2.98,1.61-4.38,2.51c-1.49,0.9-2.88,1.81-4.28,2.71s-2.79,1.91-4.18,2.91c-1.88,1.36-3.59,2.72-5.35,4.32
		c-0.61,0.52-1.22,1.03-1.84,1.55c-1.56,1.25-2.95,2.66-4.35,4.07c-1.19,1.2-2.39,2.41-3.48,3.61c-1.09,1.2-2.29,2.51-3.28,3.81
		c-0.99,1.3-2.09,2.61-3.08,4.02c-0.99,1.3-1.99,2.71-2.88,4.12c-0.9,1.41-1.89,2.81-2.69,4.22c-0.8,1.41-1.69,2.91-2.49,4.42
		c-0.8,1.51-1.59,3.01-2.29,4.52c-0.7,1.51-1.39,3.11-2.09,4.62c-0.2,0.5-0.4,0.9-0.6,1.41h79.08c11.53,0,20.69-9.85,19.9-21.58
		c-0.69-9.75-8.57-17.64-18.33-18.42c-0.09,0,0.49,0,0.4,0c-9.99-0.5-18.47,6.22-20.62,15.47c-0.59,2.66-3.05,4.53-5.71,4.53
		c-0.02,0-0.04,0-0.06,0c-0.01,0-0.03,0-0.04,0c-3.74,0-6.5-3.45-5.71-7.19c3.04-13.21,14.32-23.29,28.05-24.5
		c0.92-0.08,1.84-0.12,2.78-0.12c17.28,0,31.35,13.94,31.6,31.35c0,0.15,0.01,0.3,0.01,0.45c0,0.08,0-0.4,0-0.33
		c-0.12,17.94-14.58,32.33-32.34,32.33l-84.66,0c-0.03,0.03-0.06,0.04-0.09,0.07c-0.47,1.85-0.96,3.88-1.32,5.78
		c-0.3,1.61-0.6,3.33-0.91,4.94c-0.3,1.61-0.5,3.33-0.6,5.04c-0.2,1.71-0.3,3.33-0.4,5.04c-0.12,2.01-0.1,4.02-0.1,5.87
		c0,1.51,0.03,3.03,0.12,4.54c0.09,1.59,0.2,3.11,0.38,4.71c0.2,1.71,0.4,3.33,0.6,5.04c0.2,1.71,0.5,3.33,0.91,5.04
		c0.3,1.61,0.71,3.33,1.11,4.94c0.1,0.3,0.2,0.6,0.3,1.01h104.94c17.78,0,32.25,14.67,32.25,32.55c0,17.88-14.47,32.45-32.25,32.45
		c-0.02,0-0.04,0-0.05,0h-0.05c-15.27,0-28.13-10.85-31.45-25.22c-0.8-3.72,2.01-7.33,5.83-7.33c2.08,0,3.98,1.13,5.06,2.87
		c0.38,0.59,0.68,1.25,0.86,1.95c0.43,1.86,1.13,3.61,2.02,5.22c3.74,6.63,11.02,11,19.28,10.45c8.08-0.57,14.9-6.05,17.55-13.41
		v-0.2c0.61-1.7,0.99-3.49,1.12-5.36c0.22-2.92-0.17-5.73-1.05-8.3c-0.04-0.13-0.09-0.26-0.13-0.38c-0.12-0.33-0.25-0.65-0.38-0.97
		c-0.18-0.42-0.37-0.83-0.58-1.23c-0.05-0.11-0.11-0.22-0.16-0.32c-3.43-6.44-10.2-10.83-18.09-10.76h-99.07
		c0.2,0.5,0.4,0.9,0.6,1.41c0.6,1.51,1.29,3.11,2.09,4.62c0.7,1.51,1.49,3.01,2.29,4.52c0.8,1.51,1.59,2.91,2.49,4.42
		c0.9,1.51,1.79,2.91,2.69,4.22c0.9,1.41,1.89,2.81,2.88,4.12c0.99,1.3,2.09,2.71,3.08,4.02c1.09,1.3,2.19,2.61,3.28,3.81
		s2.29,2.51,3.48,3.61c1.19,1.2,2.39,2.31,3.68,3.51c1.29,1.1,2.59,2.21,3.88,3.31c1.29,1.1,2.59,2.11,3.98,3.11
		c1.39,1,2.79,2.01,4.18,2.91c1.39,0.9,2.88,1.81,4.28,2.71c1.49,0.9,2.88,1.71,4.38,2.51c1.49,0.8,2.98,1.51,4.58,2.31
		c1.5,0.71,3.1,1.41,4.7,2.02c1.54,0.58,3.08,1.16,4.61,1.75c1.64,0.63,3.27,1.14,4.91,1.66c1.59,0.5,3.28,0.9,4.87,1.3
		c1.59,0.4,3.28,0.8,4.97,1.1c1.69,0.3,3.28,0.6,4.97,0.9c1.69,0.2,3.38,0.5,5.07,0.6c1.64,0.19,3.28,0.29,4.91,0.39
		c1.26,0.08,2.53,0.12,3.8,0.11c2.17-0.01,4.34,0.03,6.51-0.1c1.91-0.11,3.81-0.23,5.72-0.48c1.62-0.19,3.25-0.38,4.87-0.58
		c1.54-0.2,3.08-0.48,4.53-0.85c1.69-0.3,3.28-0.7,4.97-1.1c1.59-0.4,3.28-0.9,4.87-1.3c1.83-0.58,3.65-1.15,5.48-1.88
		c1.3-0.49,2.6-0.98,3.89-1.47c1.66-0.62,3.2-1.34,4.85-2.07c1.59-0.7,3.08-1.51,4.58-2.31c1.49-0.8,2.98-1.61,4.38-2.51
		c1.49-0.9,2.88-1.81,4.28-2.71c1.39-0.9,2.79-1.91,4.18-2.91c1.39-1,2.69-2.01,3.98-3.11l3.84-3.28c0.92-0.78,1.8-1.6,2.64-2.46
		c1.54-1.57,3.14-3.14,4.56-4.71c1.09-1.2,2.19-2.51,3.28-3.81c1.09-1.3,2.09-2.61,3.08-4.02c0.99-1.41,1.99-2.71,2.88-4.12
		c0.99-1.41,1.89-2.81,2.69-4.22c0.8-1.41,1.69-2.91,2.49-4.42s1.59-3.01,2.29-4.52s1.39-3.01,2.09-4.62
		c0.6-1.51,1.29-3.11,1.79-4.72c0.6-1.61,1.09-3.21,1.59-4.82c0.5-1.61,0.99-3.21,1.39-4.82s0.8-3.31,1.09-4.92
		c0.3-1.61,0.6-3.31,0.9-5.02c0.2-1.71,0.5-3.31,0.6-5.02c0.2-1.71,0.3-3.31,0.4-5.02c0.1-1.71,0.1-3.41,0.1-5.02
		c0.1-1.91,0-3.61-0.1-5.22L353.82,244.63z M304.9,255.8H157.3c-3.05,0-5.77-2.19-6.15-5.21c-0.45-3.65,2.29-6.79,5.85-6.79h147.9
		c11.7,0,21-10,20.2-21.9c-0.7-9.9-8.7-17.9-18.6-18.7c-10.3-0.8-19.1,6.2-21.3,15.7c-0.6,2.7-3.1,4.6-5.8,4.6
		c-3.8,0-6.6-3.5-5.8-7.3c3.5-15.15,17.65-26.26,34.03-24.89c15.65,1.31,28.14,14.1,29.29,29.76
		C338.29,239.96,323.4,255.8,304.9,255.8L304.9,255.8z"/>
</g>
</svg>
