<?xml version="1.0" encoding="utf-8"?>
<!-- Generator: Adobe Illustrator 26.3.1, SVG Export Plug-In . SVG Version: 6.00 Build 0)  -->
<svg version="1.1" id="Layer_1" xmlns="http://www.w3.org/2000/svg" xmlns:xlink="http://www.w3.org/1999/xlink" x="0px" y="0px"
	 viewBox="0 0 500 500" style="enable-background:new 0 0 500 500;" xml:space="preserve">
<style type="text/css">
	.st0{fill:#17325A;}
	.st1{fill:#17325A;stroke:#010101;stroke-width:3.12;stroke-miterlimit:10;}
	.st2{fill:#010101;}
	.st3{fill:#0B6D38;}
	.st4{fill:#3958A7;stroke:#010101;stroke-width:3.12;stroke-miterlimit:10;}
	.st5{fill:#989898;}
	.st6{fill:#847B7B;}
	.st7{fill:#FFFFFF;}
</style>
<path id="color1" class="st0" d="M335.56,200.26l-44.73-18.19l21.81-9.42l-34.29-59.38c-5.83-10.09-16.34-16.8-27.99-17.25
	c-13.01-0.51-24.26,5.69-30.7,16.84l-30.29,52.44h-28.24l36.96-64c10.14-17.57,28.52-29.06,48.79-29.73
	c21.84-0.71,41.55,10.27,52.41,29.06l35.96,62.27l17.73-7.66L335.56,200.26z M356.85,137.3l-15.31,6.61l-29.29-50.72
	c-28.17-48.77-98.57-48.77-126.73,0l-44.81,77.59c-2.44,4.23,0.61,9.52,5.49,9.52h48.16c2.27,0,4.36-1.21,5.49-3.17l32.77-56.75
	c4.71-8.17,12.21-9.39,16.26-9.39c4.05,0,11.55,1.22,16.27,9.39l26.12,45.24l-16.19,6.99c-8.54,3.68-8.41,15.83,0.2,19.33
	l58.85,23.92c5.43,2.21,11.61-0.46,13.73-5.93l22.92-59.24C374.14,142.04,365.39,133.61,356.85,137.3 M423.31,373.36
	c-10.36,18.06-28.97,28.88-49.8,28.94l-71.17,0.21l-2.15,18.98l-30.09-37.11l37.64-29.44l-2.65,23.36l68.35-0.2
	c12.25-0.04,22.78-6.15,28.87-16.78c6.1-10.63,6.06-22.79-0.1-33.39l-30.12-51.81L386,251.87l37.15,63.89
	C433.61,333.77,433.67,355.3,423.31,373.36z M437.47,306.31l-45.41-78.1c-2.47-4.25-8.63-4.24-11.09,0.03l-24.14,42.1
	c-1.14,1.98-1.13,4.42,0.02,6.4l33.21,57.12c4.78,8.22,2.09,15.39,0.06,18.93c-2.03,3.54-6.86,9.48-16.37,9.51l-52.69,0.16
	l2.01-17.66c1.06-9.32-9.64-15.29-17.02-9.52l-50.45,39.46c-4.65,3.63-5.42,10.38-1.7,14.97l40.33,49.75
	c5.9,7.28,17.66,3.85,18.71-5.47l1.89-16.7l59.07-0.17C430.7,416.96,466.01,355.39,437.47,306.31 M125.16,403.1
	c-21.34-0.05-40.43-11.14-51.05-29.64c-10.63-18.51-10.57-40.57,0.15-59.02l36.64-63.07L95.2,239.64l48.42-7.41l6.58,48.53
	l-19.3-14.43l-35.19,60.57c-6.3,10.86-6.34,23.33-0.08,34.22c6.25,10.89,17.04,17.15,29.6,17.19l61.44,0.16l14.26,24.84
	L125.16,403.1z M220,408.06l-23.88-41.59c-1.12-1.96-3.21-3.17-5.46-3.18l-65.29-0.17c-9.4-0.02-14.16-5.89-16.17-9.39
	c-2.01-3.5-4.67-10.58,0.05-18.7l26.14-45l14.08,10.52c7.41,5.54,17.84-0.59,16.6-9.76l-8.5-62.7c-0.79-5.78-6.16-9.8-11.93-8.92
	l-62.56,9.58c-9.15,1.4-12.09,13.14-4.67,18.68l13.3,9.95l-29.31,50.46c-28.18,48.51,6.73,109.32,62.84,109.47l89.28,0.23
	C219.37,417.54,222.43,412.28,220,408.06 M305.02,317.4c22.88-30.32-3.92-92.59-3.92-92.59s-18.63,28.95-39.06,37.04
	c-13.65,5.4-49.43,30.63-12.13,66.06c0.4,0.38,0.82,0.77,1.26,1.14c18.04-9.28,52.85-35.4,49.35-97.92c0,0,12.44,71.2-46.95,99.84
	C264.8,339.27,284.59,344.48,305.02,317.4 M242.07,267.77c-8.81-23.14-27.34-48.63-64.63-69.38c0,0,49.25,20.29,68.45,66.76
	c2.95-1.86,5.72-3.24,7.93-4.11c6.32-2.51,12.46-7,17.94-12.02c-19.56-42.7-100.68-55.54-100.68-55.54s18.41,39.62,13.24,67.05
	c-3.24,17.14-0.99,66.87,51.19,60.03C215.33,296.4,228.77,277.67,242.07,267.77"/>
</svg>
