<?xml version="1.0" encoding="utf-8"?>
<!-- Generator: Adobe Illustrator 26.3.1, SVG Export Plug-In . SVG Version: 6.00 Build 0)  -->
<svg version="1.1" id="Layer_1" xmlns="http://www.w3.org/2000/svg" xmlns:xlink="http://www.w3.org/1999/xlink" x="0px" y="0px"
	 viewBox="0 0 500 500" style="enable-background:new 0 0 500 500;" xml:space="preserve">
<style type="text/css">
	.st0{fill:#17325A;}
	.st1{fill:#17325A;stroke:#010101;stroke-width:3.12;stroke-miterlimit:10;}
	.st2{fill:#010101;}
	.st3{fill:#0B6D38;}
	.st4{fill:#3958A7;stroke:#010101;stroke-width:3.12;stroke-miterlimit:10;}
	.st5{fill:#989898;}
	.st6{fill:#847B7B;}
	.st7{fill:#FFFFFF;}
</style>
<g>
	<path id="color1_00000119827417723175741590000002961146425331017090_" class="st0" d="M256.5,81.48V56.8
		c0-0.58-0.09-1.17-0.22-1.7c-0.04-0.18-0.1-0.36-0.17-0.54c-0.19-0.48-0.42-0.96-0.7-1.39c-0.23-0.35-0.51-0.68-0.81-0.99
		c-0.3-0.3-0.63-0.58-0.99-0.81c-0.35-0.23-0.73-0.44-1.12-0.6c-0.4-0.17-0.8-0.29-1.22-0.37c-0.42-0.08-0.84-0.13-1.27-0.13
		s-0.85,0.05-1.27,0.13c-0.42,0.08-0.83,0.2-1.22,0.37c-0.4,0.17-0.77,0.37-1.13,0.6c-0.35,0.23-0.68,0.51-0.99,0.81
		c-0.3,0.3-0.57,0.63-0.81,0.99c-0.23,0.35-0.44,0.73-0.6,1.12c-0.17,0.4-0.28,0.8-0.37,1.23c-0.08,0.42-0.12,0.84-0.12,1.27v24.67
		c0,0.43,0.04,0.86,0.12,1.27c0.09,0.42,0.2,0.83,0.37,1.23c0.17,0.39,0.37,0.77,0.6,1.12c0.23,0.35,0.51,0.68,0.81,0.99
		c0.3,0.3,0.63,0.58,0.99,0.81c0.35,0.23,0.73,0.44,1.13,0.6c0.39,0.17,0.8,0.29,1.22,0.37c0.42,0.09,0.84,0.13,1.27,0.13
		s0.85-0.04,1.27-0.13c0.42-0.08,0.82-0.2,1.22-0.37c0.39-0.17,0.77-0.36,1.12-0.6c0.35-0.23,0.68-0.51,0.99-0.81
		c0.15-0.15,0.29-0.31,0.43-0.48c0.44-0.54,0.79-1.15,1.04-1.8c0.13-0.35,0.24-0.69,0.3-1.07C256.45,82.33,256.5,81.91,256.5,81.48z
		 M210.98,104.5c0.66,0,1.3-0.09,1.93-0.29c0.63-0.19,1.22-0.47,1.77-0.84c0.55-0.36,1.03-0.8,1.45-1.31s0.75-1.07,1-1.68
		s0.41-1.24,0.47-1.9c0.06-0.66,0.03-1.31-0.1-1.95c-0.13-0.65-0.35-1.26-0.66-1.84s-0.7-1.1-1.16-1.57l-17.84-17.88
		c-0.31-0.31-0.65-0.58-1.01-0.83c-0.36-0.24-0.75-0.45-1.15-0.61c-0.41-0.17-0.82-0.3-1.25-0.38c-0.43-0.09-0.86-0.13-1.3-0.13
		s-0.87,0.04-1.3,0.13c-0.43,0.08-0.84,0.21-1.25,0.38c-0.41,0.17-0.79,0.37-1.15,0.61c-0.36,0.24-0.7,0.52-1.01,0.83
		c-0.31,0.31-0.59,0.65-0.83,1.01s-0.45,0.75-0.62,1.15c-0.17,0.41-0.29,0.82-0.38,1.26c-0.08,0.43-0.12,0.86-0.12,1.3
		c0,0.44,0.04,0.87,0.12,1.3c0.08,0.43,0.21,0.85,0.38,1.26c0.17,0.4,0.37,0.79,0.61,1.15c0.24,0.36,0.52,0.7,0.82,1.02l17.86,17.89
		c0.62,0.62,1.35,1.1,2.17,1.44C209.24,104.33,210.09,104.5,210.98,104.5L210.98,104.5z M170.02,129.71c-0.43,0-0.85,0.05-1.27,0.13
		c-0.42,0.08-0.83,0.2-1.23,0.37c-0.39,0.17-0.77,0.37-1.12,0.59c-0.35,0.23-0.68,0.51-0.98,0.81s-0.56,0.63-0.81,0.98
		c-0.23,0.35-0.44,0.73-0.59,1.12c-0.17,0.4-0.28,0.8-0.37,1.23c-0.08,0.42-0.12,0.84-0.12,1.27s0.04,0.85,0.12,1.27
		c0.09,0.42,0.2,0.82,0.37,1.22c0.17,0.4,0.37,0.77,0.59,1.13c0.23,0.35,0.51,0.68,0.81,0.98s0.63,0.56,0.98,0.81
		c0.35,0.23,0.73,0.44,1.12,0.6c0.4,0.17,0.8,0.28,1.23,0.37c0.42,0.09,0.84,0.13,1.27,0.13h24.59c0.43,0,0.85-0.04,1.27-0.13
		c0.42-0.08,0.83-0.2,1.22-0.37c0.4-0.17,0.77-0.37,1.13-0.6c0.35-0.23,0.68-0.51,0.98-0.81c0.35-0.35,0.64-0.73,0.91-1.14
		c0.15-0.22,0.27-0.46,0.38-0.7c0.21-0.49,0.37-0.98,0.48-1.49c0.08-0.42,0.12-0.84,0.12-1.27s-0.04-0.86-0.12-1.27
		c-0.09-0.42-0.2-0.83-0.37-1.23c-0.17-0.39-0.37-0.77-0.59-1.12c-0.23-0.35-0.51-0.68-0.81-0.98c-0.3-0.3-0.63-0.57-0.98-0.81
		c-0.35-0.23-0.73-0.44-1.13-0.59c-0.39-0.17-0.8-0.29-1.22-0.37c-0.42-0.08-0.84-0.13-1.27-0.13H170.02z M304.71,142.71h24.59
		c0.43,0,0.85-0.04,1.27-0.13c0.42-0.08,0.82-0.2,1.22-0.37c0.39-0.17,0.77-0.37,1.12-0.6c0.35-0.23,0.68-0.51,0.98-0.81
		c0.31-0.31,0.58-0.65,0.83-1.02c0.12-0.17,0.23-0.36,0.32-0.55c0.29-0.59,0.51-1.16,0.62-1.77c0.08-0.42,0.13-0.84,0.13-1.27
		c0-0.58-0.09-1.16-0.22-1.7c-0.04-0.18-0.1-0.36-0.17-0.54c-0.19-0.48-0.41-0.95-0.7-1.38c-0.23-0.35-0.51-0.68-0.81-0.98
		s-0.63-0.57-0.98-0.81c-0.35-0.23-0.73-0.44-1.12-0.59c-0.4-0.17-0.8-0.29-1.22-0.37c-0.42-0.08-0.84-0.13-1.27-0.13h-24.59
		c-0.43,0-0.85,0.05-1.27,0.13s-0.83,0.2-1.22,0.37c-0.4,0.17-0.77,0.37-1.12,0.59c-0.35,0.23-0.68,0.51-0.98,0.81
		s-0.57,0.63-0.81,0.98c-0.23,0.35-0.44,0.73-0.6,1.12c-0.17,0.4-0.28,0.8-0.37,1.23c-0.09,0.42-0.13,0.84-0.13,1.27
		s0.04,0.85,0.13,1.27c0.08,0.42,0.2,0.82,0.37,1.22c0.17,0.4,0.37,0.77,0.6,1.13c0.23,0.35,0.51,0.68,0.81,0.98
		s0.63,0.56,0.98,0.81c0.35,0.23,0.72,0.44,1.12,0.6c0.39,0.17,0.8,0.28,1.22,0.37C303.86,142.67,304.28,142.71,304.71,142.71
		L304.71,142.71z M310.92,84.67c0.31-0.31,0.58-0.65,0.83-1.02c0.24-0.36,0.45-0.75,0.61-1.16c0.17-0.41,0.29-0.82,0.38-1.26
		c0.08-0.43,0.12-0.86,0.12-1.3c0-0.44-0.04-0.87-0.13-1.3c-0.08-0.43-0.21-0.84-0.38-1.25c-0.17-0.41-0.38-0.79-0.62-1.16
		c-0.24-0.36-0.52-0.7-0.83-1.01c-0.31-0.31-0.65-0.58-1.01-0.83c-0.36-0.24-0.75-0.45-1.16-0.61c-0.4-0.17-0.82-0.29-1.25-0.38
		c-0.43-0.08-0.86-0.12-1.3-0.12s-0.87,0.04-1.3,0.13c-0.43,0.08-0.85,0.21-1.26,0.38c-0.4,0.17-0.79,0.38-1.15,0.62
		c-0.36,0.24-0.7,0.52-1.01,0.83l-17.83,17.88c-0.31,0.31-0.58,0.65-0.83,1.02c-0.24,0.36-0.45,0.74-0.62,1.15
		c-0.17,0.41-0.29,0.82-0.38,1.25c-0.09,0.43-0.13,0.86-0.13,1.3c0,0.44,0.04,0.88,0.12,1.3c0.09,0.43,0.21,0.85,0.38,1.26
		c0.17,0.41,0.38,0.79,0.61,1.15c0.24,0.36,0.52,0.7,0.83,1.02c0.31,0.31,0.65,0.58,1.01,0.83c0.36,0.24,0.75,0.45,1.15,0.62
		c0.41,0.17,0.82,0.29,1.25,0.38c0.43,0.08,0.86,0.12,1.3,0.12c0.44,0.01,0.87-0.04,1.3-0.12c0.43-0.08,0.84-0.21,1.25-0.38
		c0.4-0.17,0.79-0.37,1.15-0.61c0.36-0.24,0.7-0.52,1.01-0.83L310.92,84.67L310.92,84.67z M216.34,145.18c0.44,0,0.87-0.04,1.3-0.13
		c0.43-0.08,0.85-0.21,1.25-0.38c0.41-0.17,0.79-0.37,1.15-0.61c0.36-0.24,0.7-0.52,1.01-0.83c0.31-0.31,0.59-0.65,0.83-1.01
		s0.45-0.75,0.61-1.16c0.17-0.41,0.29-0.82,0.38-1.25c0.08-0.43,0.12-0.86,0.12-1.3c0-0.88,0.05-1.74,0.13-2.61
		c0.09-0.87,0.21-1.73,0.39-2.59c0.17-0.85,0.39-1.7,0.64-2.54c0.26-0.84,0.55-1.66,0.89-2.47c0.33-0.81,0.71-1.59,1.12-2.36
		s0.86-1.52,1.34-2.24c0.48-0.73,1.01-1.43,1.56-2.1s1.14-1.32,1.76-1.94s1.27-1.2,1.94-1.76c0.67-0.55,1.38-1.07,2.1-1.56
		c0.72-0.48,1.47-0.93,2.24-1.34c0.77-0.41,1.56-0.79,2.36-1.12c0.81-0.33,1.63-0.63,2.46-0.89c0.83-0.25,1.68-0.46,2.54-0.64
		c0.85-0.17,1.72-0.3,2.59-0.38c0.86-0.09,1.74-0.13,2.61-0.13s1.74,0.04,2.61,0.13c0.86,0.08,1.73,0.21,2.58,0.38
		c0.86,0.17,1.7,0.39,2.54,0.64c0.84,0.26,1.66,0.55,2.46,0.89c0.81,0.33,1.59,0.71,2.36,1.12c0.77,0.41,1.52,0.86,2.24,1.34
		c0.73,0.48,1.43,1.01,2.1,1.56c0.67,0.56,1.32,1.14,1.94,1.76c0.61,0.61,1.2,1.27,1.76,1.94c0.56,0.68,1.07,1.38,1.56,2.1
		s0.94,1.47,1.35,2.24s0.78,1.56,1.12,2.36c0.33,0.81,0.62,1.63,0.88,2.47c0.26,0.83,0.46,1.68,0.64,2.54
		c0.17,0.86,0.3,1.72,0.39,2.59s0.13,1.74,0.13,2.61c0,0.44,0.04,0.87,0.13,1.3c0.08,0.43,0.21,0.84,0.38,1.25
		c0.17,0.41,0.37,0.79,0.61,1.16c0.24,0.36,0.52,0.7,0.83,1.01c0.31,0.31,0.65,0.58,1.01,0.83c0.36,0.24,0.74,0.45,1.15,0.61
		c0.41,0.17,0.82,0.3,1.25,0.38c0.43,0.09,0.86,0.13,1.3,0.13s0.87-0.04,1.3-0.13c0.43-0.08,0.85-0.21,1.25-0.38
		c0.41-0.17,0.79-0.37,1.16-0.61c0.36-0.24,0.7-0.52,1.01-0.83c0.31-0.31,0.59-0.65,0.83-1.01c0.24-0.36,0.45-0.75,0.61-1.16
		s0.29-0.82,0.38-1.25c0.08-0.43,0.12-0.86,0.12-1.3c0-1.31-0.06-2.62-0.19-3.93c-0.12-1.3-0.32-2.6-0.57-3.89
		c-0.26-1.29-0.57-2.56-0.95-3.81c-0.38-1.26-0.82-2.49-1.32-3.7s-1.06-2.4-1.68-3.55c-0.62-1.16-1.29-2.28-2.02-3.38
		c-0.72-1.09-1.51-2.14-2.33-3.15c-0.83-1.02-1.71-1.98-2.64-2.92c-0.93-0.93-1.9-1.8-2.91-2.64c-1.01-0.83-2.06-1.61-3.15-2.34
		c-1.09-0.72-2.21-1.4-3.36-2.02c-1.16-0.62-2.34-1.18-3.55-1.68c-1.21-0.5-2.44-0.94-3.69-1.32c-1.26-0.38-2.53-0.7-3.81-0.96
		c-1.29-0.26-2.58-0.45-3.88-0.57c-1.31-0.13-2.61-0.19-3.92-0.19s-2.61,0.06-3.92,0.19c-1.31,0.12-2.6,0.32-3.89,0.57
		c-1.28,0.26-2.55,0.58-3.8,0.96c-1.26,0.38-2.48,0.82-3.7,1.32c-1.21,0.5-2.39,1.06-3.55,1.68c-1.16,0.61-2.28,1.29-3.36,2.02
		c-1.09,0.73-2.14,1.51-3.15,2.34s-1.98,1.71-2.91,2.64c-0.93,0.93-1.81,1.9-2.64,2.92c-0.83,1.01-1.61,2.06-2.34,3.16
		c-0.73,1.09-1.4,2.21-2.02,3.37c-0.62,1.16-1.18,2.34-1.68,3.55c-0.51,1.21-0.94,2.44-1.32,3.7s-0.7,2.53-0.95,3.81
		c-0.26,1.29-0.45,2.58-0.58,3.89s-0.19,2.61-0.19,3.93c0,0.44,0.04,0.87,0.13,1.3c0.08,0.43,0.21,0.84,0.38,1.25
		s0.37,0.79,0.61,1.16c0.24,0.36,0.52,0.7,0.83,1.01c0.31,0.31,0.65,0.58,1.01,0.83c0.36,0.24,0.74,0.45,1.15,0.61
		c0.41,0.17,0.82,0.3,1.25,0.38C215.47,145.13,215.9,145.18,216.34,145.18z M423.35,361.91l-45.55-200
		c-0.17-0.74-0.45-1.43-0.85-2.07c-0.4-0.64-0.9-1.19-1.49-1.67c-0.59-0.47-1.24-0.83-1.95-1.08s-1.45-0.38-2.2-0.38l-242.61,0
		c-0.65,0-1.3,0.08-1.92,0.28c-0.82,0.27-1.57,0.65-2.23,1.18c-0.59,0.47-1.09,1.03-1.49,1.67c-0.4,0.64-0.68,1.33-0.85,2.07
		l-45.52,200c0.01,0.5-0.05,0.99-0.17,1.48v26.66c0,0.44,0.04,0.88,0.13,1.3c0.08,0.43,0.21,0.85,0.38,1.26
		c0.17,0.4,0.38,0.79,0.62,1.15c0.24,0.36,0.52,0.7,0.83,1.01c0.31,0.31,0.65,0.59,1.01,0.83s0.74,0.45,1.15,0.61
		c0.41,0.16,0.82,0.29,1.25,0.38c0.43,0.08,0.86,0.12,1.3,0.13H223.5v13.25c-1.08,0-2.17,0.05-3.25,0.16
		c-1.07,0.11-2.15,0.27-3.21,0.48c-1.06,0.21-2.11,0.48-3.15,0.79c-1.03,0.32-2.06,0.69-3.06,1.09c-1,0.42-1.98,0.88-2.94,1.39
		c-0.95,0.52-1.89,1.06-2.78,1.67c-0.9,0.6-1.77,1.25-2.61,1.94c-0.84,0.7-1.64,1.42-2.42,2.18c-0.77,0.76-1.49,1.57-2.18,2.4
		c-0.69,0.84-1.33,1.71-1.94,2.61c-0.61,0.9-1.16,1.84-1.67,2.79c-0.52,0.95-0.97,1.94-1.39,2.94s-0.79,2.03-1.09,3.06
		c-0.31,1.03-0.58,2.09-0.79,3.16c-0.21,1.06-0.38,2.13-0.48,3.22c-0.1,1.14-0.17,2.28-0.16,3.42c0,0.32,0.03,0.63,0.08,0.94
		c0.09,0.49,0.22,0.95,0.41,1.41c0.17,0.41,0.38,0.78,0.61,1.15c0.24,0.36,0.52,0.7,0.83,1c0.31,0.31,0.65,0.58,1,0.82
		c0.36,0.24,0.75,0.45,1.14,0.62c0.41,0.17,0.82,0.29,1.25,0.38c0.43,0.09,0.86,0.13,1.29,0.13h106.02c0.44,0,0.87-0.04,1.29-0.13
		c0.43-0.08,0.84-0.21,1.24-0.38c0.4-0.17,0.79-0.38,1.14-0.62s0.7-0.52,1-0.82c0.32-0.32,0.6-0.67,0.85-1.04
		c0.12-0.17,0.23-0.36,0.32-0.55c0.3-0.6,0.52-1.18,0.64-1.81c0.08-0.43,0.13-0.85,0.13-1.29c0-1.08-0.06-2.16-0.16-3.25
		c-0.11-1.08-0.27-2.15-0.48-3.22c-0.21-1.06-0.48-2.11-0.8-3.16s-0.68-2.06-1.09-3.06c-0.42-1-0.88-1.98-1.39-2.94
		c-0.51-0.95-1.06-1.89-1.67-2.79c-0.61-0.9-1.25-1.77-1.94-2.61c-0.69-0.83-1.42-1.64-2.19-2.4c-0.77-0.77-1.57-1.5-2.41-2.18
		c-0.84-0.69-1.71-1.33-2.62-1.94c-0.9-0.61-1.83-1.16-2.78-1.67c-0.95-0.51-1.94-0.97-2.94-1.39c-1-0.42-2.02-0.78-3.06-1.09
		c-1.03-0.32-2.09-0.58-3.15-0.79c-1.06-0.21-2.14-0.37-3.21-0.48c-1.07-0.11-2.16-0.16-3.25-0.16v-13.25h140.33
		c0.44-0.01,0.87-0.05,1.3-0.13c0.43-0.09,0.85-0.21,1.25-0.38c0.41-0.17,0.79-0.38,1.16-0.61c0.36-0.24,0.7-0.52,1.01-0.83
		c0.31-0.31,0.59-0.65,0.83-1.01c0.24-0.36,0.45-0.75,0.61-1.15c0.17-0.41,0.29-0.82,0.38-1.26c0.08-0.43,0.12-0.86,0.12-1.3v-26.66
		C423.48,362.9,423.43,362.4,423.35,361.91z M365.76,169.71l5.9,26h-51.31l-2.96-26H365.76z M133.59,169.71h48.37l-2.95,26h-51.33
		L133.59,169.71L133.59,169.71z M160.68,356.71H91.09l11.35-50h63.9L160.68,356.71L160.68,356.71z M325.74,356.71l-69.24,0.05v-7.12
		c-2.18,0.17-4.37,0.29-6.59,0.29c-2.22,0-4.29-0.11-6.41-0.28l-0.02,7.06h-67.59l4.87-43.91c-4.54-6.66-8.16-14.01-10.72-21.85
		l-0.31,2.76h-64.04l9.09-40h49.24c0.5-4.45,1.35-8.78,2.52-13h-48.79l7.25-32h52.47c-0.23,1.95-0.59,5.56-1.06,9.67
		c5.38-8.74,12.32-16.42,20.42-22.67h-2.93l2.84-26h46.76v8.16c2.13-0.17,4.26-0.28,6.43-0.28s4.41,0.12,6.57,0.29v-8.17h46.77
		l2.84,26h-3.8c8.27,6.37,15.34,14.23,20.77,23.18c-0.6-5.37-1.1-9.94-1.17-10.18h52.46l7.26,32h-48.98c1.18,4.21,2.03,8.55,2.53,13
		h49.45l9.08,40h-61.66l-0.35-3.09c-2.59,7.88-6.3,15.26-10.92,21.96L325.74,356.71L325.74,356.71z M338.65,356.71l-5.66-50h63.88
		l11.36,50H338.65z M246.5,237.96l0.25,15.57c-2.01-0.75-3.52-2.01-4.52-3.27c-1.01-1.51-1.51-3.01-1.51-4.52
		c0-1.76,0.5-3.52,1.51-4.77S244.75,238.46,246.5,237.96z M259.53,272.12c1.26,1.51,1.76,3.26,1.76,5.27c0,2.26-0.76,4.27-2.26,5.78
		c-1.51,1.76-3.27,2.76-5.53,3.27V268.6C256.26,269.36,258.27,270.61,259.53,272.12L259.53,272.12z M249.59,192.87
		c-39.19,0-71.09,31.9-71.09,71.09s31.9,71.09,71.09,71.09s71.09-31.9,71.09-71.09S288.77,192.87,249.59,192.87z M267.04,289.71
		c-3.52,3.77-8.04,6.28-13.54,7.03v8.97h-8v-8.72c-4.59-0.75-8.86-2.76-12.12-6.03c-3.27-3.27-5.27-8.04-6.28-14.07l12.31-1.51
		c0.5,2.27,1.51,4.53,2.76,6.28c1.26,1.76,4.33,3.77,4.33,3.77v-19.34c0,0-10.35-4.52-13.12-7.79c-2.76-3.27-4.27-7.54-4.27-12.56
		s1.51-9.04,4.78-12.56c3.02-3.52,7.29-5.53,13.61-6.03v-4.44h6v4.44c4.51,0.51,8.53,2.26,11.29,5.03
		c2.77,2.76,4.78,6.53,5.53,11.05l-11.55,1.51c-0.76-3.52-2.52-6.03-5.27-7.28v18.08c7.02,2.01,11.8,4.52,14.56,7.79
		c2.77,3.27,4.02,7.29,4.02,12.31C272.08,281.17,270.56,285.94,267.04,289.71z"/>
</g>
</svg>
