<?xml version="1.0" encoding="utf-8"?>
<!-- Generator: Adobe Illustrator 26.3.1, SVG Export Plug-In . SVG Version: 6.00 Build 0)  -->
<svg version="1.1" id="Layer_1" xmlns="http://www.w3.org/2000/svg" xmlns:xlink="http://www.w3.org/1999/xlink" x="0px" y="0px"
	 viewBox="0 0 500 500" style="enable-background:new 0 0 500 500;" xml:space="preserve">
<style type="text/css">
	.st0{fill:#17325A;}
	.st1{fill:#17325A;stroke:#010101;stroke-width:3.12;stroke-miterlimit:10;}
	.st2{fill:#010101;}
	.st3{fill:#0B6D38;}
	.st4{fill:#3958A7;stroke:#010101;stroke-width:3.12;stroke-miterlimit:10;}
	.st5{fill:#989898;}
	.st6{fill:#847B7B;}
	.st7{fill:#FFFFFF;}
</style>
<g>
	<path id="color1_00000093868520474812727400000014589435242823513787_" class="st0" d="M353.35,274.67c-48.1,0-87.2-39.1-87.2-87.1
		c0-18.4,11.4-42.8,25.4-65.6c-31-39.7-58.3-69.4-58.6-69.7c-2.4-2.6-6.8-2.6-9.2,0c-6.2,6.7-151.7,165.1-151.7,247.6
		s70.1,149.8,156.2,149.8s156.2-67.2,156.2-149.8c0.1-8.6-1.6-18.5-4.8-29.3C371.35,273.17,362.45,274.67,353.35,274.67
		L353.35,274.67z M177.27,137.79l13.32-18.13c2.03-2.81,5.95-3.34,8.77-1.31c2.81,2.03,3.34,5.95,1.31,8.77l-13.32,18.13
		c-1.28,1.75-3.32,2.66-5.32,2.57c-1.2-0.05-2.38-0.41-3.45-1.25C175.87,144.55,175.24,140.62,177.27,137.79L177.27,137.79z
		 M130.27,204.68l33.38-48.47c1.93-2.82,5.86-3.54,8.68-1.62c2.82,1.93,3.54,5.86,1.62,8.68l-33.38,48.47
		c-1.28,1.84-3.33,2.76-5.42,2.66c-1.1-0.05-2.28-0.4-3.26-1.05C129.07,211.43,128.35,207.49,130.27,204.68L130.27,204.68z
		 M192.27,365.74h-59.08c-2.55,0-4.98-1.33-6.26-3.43c-1.27-2.1-1.27-4.75,0-6.85l31.39-51.72h-16.78c-4.03,0-7.34-3.16-7.34-7
		s3.31-7,7.34-7h29.03c2.43,0,4.64,1.11,6.03,3.09l14.5,20.7c2.2,3.21,1.27,7.42-1.97,9.52c-1.27,0.77-2.66,1.11-4.07,1.11
		c-2.32,0-4.64-1.11-6.03-3.09l-7.89-11.29l-25.53,41.95h46.65c3.95,0,7.19,3.09,7.19,6.86s-3.24,6.97-7.19,6.97L192.27,365.74z
		 M228.01,213.85l-30.54,50.38c-2.01,3.39-6.63,4.52-10.07,2.6c-3.56-1.92-4.73-6.21-2.72-9.6l36.94-61.11
		c2.61-4.4,10.18-4.4,12.78,0l39.31,64.94l7.22-10.39c2.25-3.28,6.87-4.07,10.3-1.92c3.43,2.15,4.26,6.55,2.01,9.72l-14.68,21.12
		c-1.42,1.92-3.67,3.16-6.15,3.16h-29.6c-4.03,0-7.34-3.16-7.34-7s3.31-7,7.34-7h18.47L228.01,213.85L228.01,213.85z M329.86,362.2
		c-1.27,2.17-3.71,3.54-6.26,3.54h-67.32l6.95,10.27c2.2,3.31,1.27,7.65-1.97,9.93c-1.27,0.79-2.66,1.15-4.06,1.15
		c-2.32,0-4.63-1.15-6.02-3.19l-14.48-21.23c-0.12-0.23-0.23-0.57-0.35-0.79c-0.12-0.23-0.23-0.45-0.35-0.68
		c-0.58-1.6-0.58-3.31,0-4.9c0.12-0.23,0.23-0.45,0.35-0.68c0.12-0.23,0.23-0.57,0.35-0.79l14.48-21.34
		c2.2-3.31,6.72-4.11,10.08-1.94c3.36,2.17,4.17,6.62,1.97,9.93l-6.95,10.27h54.69l-27.23-46.33c-1.97-3.43-0.81-7.76,2.66-9.69
		c3.48-1.94,7.88-0.79,9.85,2.62l33.48,57.05c1.39,1.94,1.39,4.68,0.12,6.85L329.86,362.2z M358.05,64.88c-2.4-2.8-7.2-2.8-9.5,0
		c-2.9,3.4-70,83-70,122.6s33.5,74.6,74.7,74.6s74.7-33.5,74.7-74.6C428.05,147.97,360.95,68.27,358.05,64.88L358.05,64.88z
		 M365.6,242.35c-3.5,0-6.2-2.8-6.2-6.2s2.8-6.2,6.2-6.2c17.5,0,31.7-14.2,31.7-31.6c0-3.4,2.8-6.2,6.2-6.2s6.2,2.8,6.2,6.2
		C409.8,222.54,390,242.35,365.6,242.35L365.6,242.35z"/>
</g>
</svg>
