<?xml version="1.0" encoding="utf-8"?>
<!-- Generator: Adobe Illustrator 26.3.1, SVG Export Plug-In . SVG Version: 6.00 Build 0)  -->
<svg version="1.1" id="Layer_1" xmlns="http://www.w3.org/2000/svg" xmlns:xlink="http://www.w3.org/1999/xlink" x="0px" y="0px"
	 viewBox="0 0 500 500" style="enable-background:new 0 0 500 500;" xml:space="preserve">
<style type="text/css">
	.st0{fill:#17325A;}
	.st1{fill:#17325A;stroke:#010101;stroke-width:3.12;stroke-miterlimit:10;}
	.st2{fill:#010101;}
	.st3{fill:#0B6D38;}
	.st4{fill:#3958A7;stroke:#010101;stroke-width:3.12;stroke-miterlimit:10;}
	.st5{fill:#989898;}
	.st6{fill:#847B7B;}
	.st7{fill:#FFFFFF;}
</style>
<g>
	<path id="color1_00000033368732334357892410000018242561660418033288_" class="st0" d="M344.83,356.77
		c24.46-27.98,34.42-59.52,28.53-95.09c-2.49-15.01-8.97-28.79-14.94-42.74c-12.8-29.91-34.5-53.22-63.64-71.05
		c-16.15-9.88-33.32-18.24-49.5-28.03c-13.78-8.34-27.41-16.84-36.71-29.81c-8.49-11.86-13.13-24.77-13-40.05
		c-17.11,14.14-29.79,29.8-40.29,46.98c-27.73,45.37-34.51,94.48-27.98,145.02c6.54,50.6,34.82,89.98,81.54,118.17
		c28.75,17.33,61.15,25.25,94.76,29.75c4.2,0.56,6.04,1.6,6.2,5.61c0.55,12.86,1.21,25.72-0.41,38.57
		c-0.66,5.24-1.5,10.46-2.3,15.91c6.82-1.94,13.2-4.16,19.79-5.5c4.82-0.99,5.66-3.22,5.63-7.26c-0.19-19.25-1.55-38.41-3.88-57.54
		c-0.31-2.51,0-4.48,1.8-6.46C335.34,367.82,340.04,362.26,344.83,356.77L344.83,356.77z M324.05,361.33
		c-15.28-0.04-30.56-0.04-45.83-0.05c-6.54,0.04-13.07,0.07-19.61,0c-4.26,0-8.52,0-12.78,0c-0.71,0-1.41-0.25-2.12-0.4
		c-1.97,0.44-3.58-0.5-5.2-1.21c-26.99-11.88-48.36-27.52-64.13-46.9c-14.53-17.85-29.78-36.35-34.66-74.25c0-0.05,0-0.08-0.01-0.13
		c-0.78-4.9-2.78-16.24-1.86-22.97c0.07-0.55,4.89-0.21,4.89-0.21c3.04-0.3,4.49-0.07,5.1,0.64c0.57,0.67,0.03,1.37,0.13,2.87
		c0.4,5.69-0.09,4.65,3.18,4.55c4.58-0.13,3.93,1.07,3.79-3.76c-0.07-2.8-0.1-4.43-0.12-4.9c-0.07-1.53-0.15-2.58-0.94-13.8
		c-0.83-11.76-2.31-16,0.77-18.78c0.74-0.66,0.84-0.47,1.55-1.15c3.64-3.55,0.9-9.66,0.94-14.22c0.04-6.04,0-12.08,0.83-18.12
		c2.53,5.19,1.34,10.57,1.67,15.84c0.25,4.12,0.69,8.29,0.56,12.45c-0.06,1.98,0.13,3.77,2.52,5.08c2.43,1.34,3.08,3.78,3.01,6.52
		c-0.18,6.18,0.47,12.39-0.04,18.53c-0.27,3.18,0.12,5.5,0.77,8.52c0.28,1.3,1.52,2.17,2.98,2.25c3.01,0.15,8.38,2.44,11.13,2.55
		c3.05,0.11,3.85,2.03,3.85,4.52c-0.03,13.36,0.16,26.73-0.12,40.09c-0.07,3.53,0.81,4.68,4.72,4.56c5.85-0.19,4.45,0.97,4.61,3.8
		c0.35,6.34,0.12,12.65,0,19.02c-0.07,4.13,0.1,6.26,5.81,6.1c6.88-0.19,5.91,0.9,5.91,5.18c0,1.89-0.44,1.39,4.02,1.27
		c4.49-0.12,3.73,0.12,3.65-2.07c-0.16-4.51-1.02-3.38,5.53-3.63c4.72-0.19,4.32,1.39,4.24,2.53c-0.41,5.46-0.34,3.97,2.4,3.89
		c4.72-0.12,3.62-0.21,3.54-3.17c-0.03-0.9,1.03-0.56,1.72-0.63c6.34-0.59,12.22-1.27,18.46-1.26c4.41,0.01,4.61,1.6,4.61,4.41
		c0,12.04,0,24.07,0,36.12c0,1.5,0.07,3,0,4.52c-0.16,3.11,0.15,3.26,2.87,3.22c5.58-0.09,4.52-0.46,4.26-3.34
		c-0.29-3.38,0.34-5.2,5.07-5.89c1.89-0.27,1.55-2.07,1.78-3.29c0.19-0.98,0.37-1.96,0.34-2.95c-0.25-8.97-0.85-7.28,7.19-7.66
		c4.63-0.21,5.72-0.82,5.56-5.07c-0.13-3.31-0.09-6.68-0.09-10.02c0-2.16-0.53-5.73,2.56-5.57c2.93,0.16,2.93-4.12,2.81-6.29
		c-0.32-6.34,2.87-4.95,6.76-5.11c4.26-0.17,4.58,1.62,4.58,4.8c0,3.67-0.06,6.79,5.51,6.97c3.58,0.12,2.55,3.19,2.55,5.14
		c-0.07,16.38-0.24,28.85-0.4,45.22l7.96-0.39c-0.25-56.7-0.52-97.84-0.68-104.82c-0.1-6.84-0.74-7.66,4.29-7.75
		c4.8-0.08,3.39,0.59,3.49-1.07c0.18-2.88-1.09-4.47,4.14-4.57c1-0.01,0.99-2.68,0.85-5.54c-0.31-6.49-0.13-13-0.15-19.5
		c0-1.5-0.19-3.06,1.4-4.21c1.83,0.99,1.53,2.83,1.47,4.29c-0.29,7.12-0.07,13,0.15,20.53c0.06,2.16-0.27,4.35,1.61,4.35
		c4.57,0,4.11,0.27,4.36,3.22c0.15,1.85,0.12,1.96,1.46,1.93c3.65-0.09,7.54-0.17,9.99-0.25c3.23-0.09,2.71,2.03,2.71,4.08
		c0,5.55,0.83,6.3,7.54,6.3c5.32,0,4.67,2.43,5.13,6.56c1.81,16.48,2.33,30.36,1.28,36.91c-2.59,16.34-6.06,25.01-14.48,39.09
		c-3.93,6.56-11.58,18.78-17.09,23.95c-1.78,1.68-3.6,2.56-6.22,2.56L324.05,361.33z"/>
</g>
</svg>
