<?xml version="1.0" encoding="utf-8"?>
<!-- Generator: Adobe Illustrator 26.3.1, SVG Export Plug-In . SVG Version: 6.00 Build 0)  -->
<svg version="1.1" id="Layer_1" xmlns="http://www.w3.org/2000/svg" xmlns:xlink="http://www.w3.org/1999/xlink" x="0px" y="0px"
	 viewBox="0 0 500 500" style="enable-background:new 0 0 500 500;" xml:space="preserve">
<style type="text/css">
	.st0{fill:#17325A;}
	.st1{fill:#17325A;stroke:#010101;stroke-width:3.12;stroke-miterlimit:10;}
	.st2{fill:#010101;}
	.st3{fill:#0B6D38;}
	.st4{fill:#3958A7;stroke:#010101;stroke-width:3.12;stroke-miterlimit:10;}
	.st5{fill:#989898;}
	.st6{fill:#847B7B;}
	.st7{fill:#FFFFFF;}
</style>
<g>
	<path id="color1_00000119082895824481378680000015812928685363291819_" class="st0" d="M358.4,361.57c-10.5,0-19-8.5-19-19.1
		s8.5-19.1,19-19.1s19.1,8.5,19.1,19.1C377.4,353.07,368.9,361.57,358.4,361.57z M358.4,305.37c-20.5,0-37,16.6-37,37.1
		c0,20.5,16.6,37.1,37,37.1s37-16.6,37-37.1S378.9,305.37,358.4,305.37 M127,342.47c0-10.5,8.5-19.1,19.1-19.1
		c10.6,0,19.1,8.5,19.1,19.1s-8.5,19.1-19.1,19.1C135.5,361.57,127,353.07,127,342.47z M183,342.47c0-20.5-16.6-37.1-37.1-37.1
		s-37,16.6-37,37.1s16.6,37.1,37.1,37.1C166.5,379.67,183,362.97,183,342.47 M98.5,342.47c0-26.2,21.3-47.5,47.4-47.5
		s47.5,21.3,47.5,47.5c0,1.1-0.1,2.3-0.1,2.73h66.5c1.6-1.23,3.2-3.23,4.7-5.23c16.1-21.2,24.9-46.4,25.5-73.1l-7.2-1.4
		c-23.3-4.5-42.1-14-56.1-28.4c-1.2-1.3-2.4-2.6-3.6-3.9c-33.6,9.9-55.7,24.6-62.1,29.2c-30,1.4-55.4,5.8-73.8,12.9
		c-10.1,3.9-18.2,8.6-24.1,14c-6.6,6.1-10.6,13.1-11.7,20.9c-2.3,15.8,3.6,25.4,9,30.7c2.2,2.1,4.4,3.7,6.4,5.33h31.9
		C98.6,344.77,98.5,343.67,98.5,342.47 M440.71,257.8c-19.3,2.4-37.4-4.2-39.6-5.1c-26-13.4-52.7-22.2-79.6-26.2
		c-0.3-1.1-0.6-2.2-0.9-3.3c0,0-9.6-45.8-41.1-73.2s-50.2-27.8-61.4-59c0,0-31,91.8,15.6,139.7c11.6,12,28,21.2,51,25.6
		c0,0,1.7-13.4-2.5-32.2c-3.9-17.3-12.7-39.2-32.4-59.3c0,0,29.1,21.9,42.9,59.3c3,8,5.2,16.8,6.3,26.2c0.5,4.6,0.7,9.3,0.7,14.1
		c0,30.7-10.2,59-27.5,81.7c-24.6,32.4-63.6,53.4-107.4,53.4c-24.2,0-46.9-6.4-66.5-17.5c23.7,17,52.7,27,84,27
		c49.4,0,93.1-24.9,119.1-62.8h9.7c-0.1-1.1-0.1-2.3-0.1-3.4c0-26.2,21.3-47.5,47.5-47.5s47.5,21.3,47.5,47.5c0,1.1,0,2.3-0.1,3.4h9
		c9.9-2.5,18-6.5,24-11.9c8.5-7.6,9.9-15.4,10.1-16.2l0.1-0.5v-60.7L440.71,257.8"/>
</g>
</svg>
