<?xml version="1.0" encoding="utf-8"?>
<!-- Generator: Adobe Illustrator 26.3.1, SVG Export Plug-In . SVG Version: 6.00 Build 0)  -->
<svg version="1.1" id="Layer_1" xmlns="http://www.w3.org/2000/svg" xmlns:xlink="http://www.w3.org/1999/xlink" x="0px" y="0px"
	 viewBox="0 0 500 500" style="enable-background:new 0 0 500 500;" xml:space="preserve">
<style type="text/css">
	.st0{fill:#17325A;}
	.st1{fill:#17325A;stroke:#010101;stroke-width:3.12;stroke-miterlimit:10;}
	.st2{fill:#010101;}
	.st3{fill:#0B6D38;}
	.st4{fill:#3958A7;stroke:#010101;stroke-width:3.12;stroke-miterlimit:10;}
	.st5{fill:#989898;}
	.st6{fill:#847B7B;}
	.st7{fill:#FFFFFF;}
</style>
<g>
	<path id="color1_00000145750373080607526340000017387909983819207300_" class="st0" d="M66.3,216.04l23.8,8.6
		c0.8,0.3,1.6,0.4,2.3,0.4c2.8,0,5.4-1.7,6.4-4.5c1.3-3.6-0.5-7.5-4.1-8.8l-23.8-8.7c-3.6-1.3-7.5,0.5-8.8,4.1
		C60.9,210.84,62.7,214.74,66.3,216.04 M79.4,185.04l21.9,12.6c1.1,0.6,2.3,0.9,3.4,0.9c2.4,0,4.7-1.2,5.9-3.4
		c1.9-3.3,0.8-7.4-2.5-9.3l-21.9-12.6c-3.3-1.9-7.4-0.8-9.3,2.5C75,178.94,76.1,183.14,79.4,185.04 M97.7,156.84l19.4,16.3
		c1.3,1.1,2.8,1.6,4.4,1.6c1.9,0,3.9-0.8,5.2-2.4c2.4-2.9,2.1-7.2-0.8-9.6l-19.4-16.3c-2.9-2.4-7.2-2.1-9.6,0.8
		C94.4,150.04,94.8,154.34,97.7,156.84 M136.9,151.54c1.4,1.6,3.3,2.5,5.2,2.5c1.6,0,3.1-0.5,4.4-1.6c2.9-2.4,3.3-6.7,0.8-9.6
		l-16.3-19.4c-2.4-2.9-6.7-3.3-9.6-0.8c-2.9,2.4-3.3,6.7-0.8,9.6L136.9,151.54 M160.2,133.84c1.3,2.2,3.6,3.4,5.9,3.4
		c1.2,0,2.3-0.3,3.4-0.9c3.3-1.9,4.4-6.1,2.5-9.3l-12.6-21.9c-1.9-3.3-6.1-4.4-9.3-2.5c-3.3,1.9-4.4,6.1-2.5,9.3L160.2,133.84
		 M186.2,120.34c1,2.8,3.6,4.5,6.4,4.5c0.8,0,1.6-0.1,2.3-0.4c3.6-1.3,5.4-5.2,4.1-8.8l-8.6-23.8c-1.3-3.6-5.2-5.4-8.8-4.1
		c-3.6,1.3-5.4,5.2-4.1,8.8L186.2,120.34 M214.1,111.64c0.6,3.3,3.5,5.7,6.7,5.7c0.4,0,0.8,0,1.2-0.1c3.7-0.7,6.2-4.2,5.6-7.9
		l-4.4-24.9c-0.7-3.7-4.2-6.2-7.9-5.6c-3.7,0.7-6.2,4.2-5.6,7.9L214.1,111.64 M250.2,115.31c3.91,0,7-3.19,7-7V82.26
		c0-4.73-4.66-8.25-9.44-6.58c-2.78,0.97-4.56,3.7-4.56,6.64l0,25.98C243.1,112.12,246.29,115.31,250.2,115.31 M277.9,117.14
		c0.4,0.1,0.8,0.1,1.2,0.1c3.3,0,6.1-2.3,6.7-5.7l4.4-24.9c0.7-3.7-1.8-7.3-5.5-7.9c-3.7-0.6-7.3,1.8-7.9,5.6l-4.4,24.9
		C271.7,112.94,274.2,116.54,277.9,117.14 M305,124.44c0.8,0.3,1.6,0.4,2.3,0.4c2.8,0,5.4-1.7,6.4-4.5l8.7-23.8
		c1.3-3.6-0.5-7.5-4.1-8.8c-3.5-1.3-7.5,0.5-8.8,4.1l-8.6,23.8C299.6,119.24,301.5,123.14,305,124.44 M330.4,136.34
		c1.1,0.6,2.2,0.9,3.4,0.9c2.4,0,4.7-1.2,5.9-3.4l12.7-21.9c1.9-3.3,0.8-7.4-2.5-9.3c-3.3-1.9-7.5-0.8-9.3,2.5l-12.6,21.9
		C326,130.24,327.2,134.44,330.4,136.34 M353.4,152.34c1.3,1.1,2.8,1.6,4.4,1.6c2,0,3.9-0.8,5.2-2.4l16.3-19.4
		c2.4-2.9,2-7.2-0.8-9.6c-2.9-2.4-7.2-2.1-9.6,0.8l-16.3,19.4C350.1,145.64,350.5,149.94,353.4,152.34 M373.2,172.24
		c1.4,1.6,3.3,2.4,5.2,2.4c1.5,0,3.1-0.5,4.4-1.6l19.4-16.3c2.9-2.4,3.3-6.7,0.8-9.6c-2.4-2.9-6.7-3.3-9.6-0.8l-19.4,16.3
		C371.2,165.04,370.8,169.34,373.2,172.24 M389.3,195.24c1.3,2.2,3.6,3.4,5.9,3.4c1.2,0,2.3-0.3,3.4-0.9l21.9-12.6
		c3.3-1.9,4.4-6.1,2.5-9.3c-1.9-3.3-6.1-4.4-9.3-2.5l-21.9,12.7C388.6,187.74,387.4,191.94,389.3,195.24 M401.2,220.64
		c1,2.8,3.6,4.5,6.4,4.5c0.8,0,1.6-0.1,2.3-0.4l23.8-8.6c3.5-1.3,5.4-5.2,4.1-8.8c-1.3-3.5-5.2-5.4-8.8-4.1l-23.8,8.7
		C401.7,213.14,399.9,217.04,401.2,220.64 M408.4,247.74c0.5,2.9,2.8,5.1,5.5,5.6c0.8,0.1,1.6,0.1,2.4,0l24.9-4.4
		c3.7-0.7,6.2-4.2,5.5-7.9s-4.2-6.2-7.9-5.6l-24.9,4.4C410.3,240.44,407.8,243.94,408.4,247.74 M443.2,268.17h-25.87
		c-3.91,0-7,3.19-7,7c0,3.09,1.96,5.66,4.63,6.59c0.72,0.31,1.54,0.41,2.37,0.41h26.04c3.91,0,7-3.19,7-7c0.1-3.91-3.09-7-7-7
		 M441.3,302.44l-24.9-4.4c-3.7-0.6-7.3,1.8-7.9,5.5c-0.5,2.9,0.9,5.7,3.3,7.1c0.7,0.4,1.4,0.7,2.2,0.8l24.9,4.4
		c3.7,0.7,7.3-1.8,7.9-5.5C447.4,306.64,445,303.04,441.3,302.44 M433.7,335.24l-23.8-8.7c-3.5-1.3-7.5,0.5-8.8,4.1
		c-1,2.8-0.1,5.8,2,7.6c0.6,0.5,1.3,0.9,2.1,1.2l23.8,8.6c3.5,1.3,7.5-0.5,8.8-4.1C439.1,340.44,437.3,336.54,433.7,335.24
		 M420.6,366.24l-21.9-12.7c-3.3-1.9-7.5-0.8-9.3,2.5c-1.5,2.6-1.1,5.7,0.7,7.8c0.5,0.6,1.1,1.1,1.8,1.5l21.9,12.6
		c3.3,1.9,7.5,0.8,9.3-2.5C425,372.34,423.8,368.14,420.6,366.24 M402.3,394.44l-19.4-16.2c-2.9-2.4-7.2-2-9.6,0.8
		c-1.9,2.3-2.1,5.4-0.7,7.8c0.4,0.7,0.9,1.3,1.5,1.8l19.4,16.3c2.9,2.4,7.2,2,9.6-0.8C405.5,401.24,405.2,396.94,402.3,394.44
		 M119.2,377.04c-0.7,0.3-1.4,0.7-2.1,1.2l-19.4,16.3c-2.9,2.4-3.3,6.7-0.8,9.6c2.4,2.9,6.7,3.3,9.6,0.8l19.4-16.3
		c2.9-2.4,3.3-6.7,0.8-9.6C124.8,376.84,121.8,376.04,119.2,377.04 M110.6,356.04c-1.5-2.6-4.4-3.8-7.1-3.3
		c-0.8,0.1-1.5,0.4-2.2,0.8l-21.9,12.7c-3.3,1.9-4.4,6.1-2.5,9.3c1.9,3.3,6.1,4.4,9.3,2.5l21.9-12.6
		C111.4,363.54,112.5,359.34,110.6,356.04 M98.8,330.64c-1-2.8-3.6-4.5-6.4-4.5c-0.8,0-1.6,0.1-2.3,0.4l-23.8,8.7
		c-3.5,1.3-5.4,5.2-4.1,8.8c1.3,3.5,5.2,5.4,8.8,4.1l23.8-8.7C98.3,338.14,100.1,334.24,98.8,330.64 M91.5,303.54
		c-0.5-2.9-2.8-5.1-5.6-5.5c-0.8-0.1-1.6-0.1-2.4,0l-24.9,4.4c-3.7,0.7-6.2,4.2-5.5,7.9c0.7,3.7,4.2,6.2,7.9,5.5l24.9-4.4
		C89.7,310.84,92.2,307.34,91.5,303.54 M82.67,282.17c3.91,0,7-3.19,7-7c0-3.09-1.96-5.66-4.63-6.59c-0.72-0.31-1.54-0.41-2.37-0.41
		H56.63c-4.73,0-8.25,4.66-6.58,9.44c0.97,2.78,3.7,4.56,6.64,4.56l25.51,0 M58.7,248.84l24.9,4.4c3.7,0.7,7.3-1.8,7.9-5.6
		c0.5-2.9-0.9-5.7-3.3-7.1c-0.7-0.4-1.4-0.7-2.2-0.8l-24.9-4.4c-3.7-0.7-7.3,1.8-7.9,5.5C52.5,244.64,55,248.24,58.7,248.84
		 M250,126.54c-82.3,0-149.1,66.7-149.1,149.1s66.7,149.1,149.1,149.1s149.1-66.8,149.1-149.1S332.3,126.54,250,126.54z M243.2,371
		v-7.75l-8.2,8.7c-1,1-2.4,1.5-3.7,1.5s-2.7-0.5-3.7-1.5c-2-2-2-5.4,0-7.4l15.6-16.1v-15l-15.8,16.3c-1,1-2.4,1.5-3.7,1.5
		s-2.7-0.5-3.7-1.5c-2.1-2-2.1-5.4,0-7.4l23.2-23.7v-28.3l-24.3,14.3l-8.6,32.1c-0.6,2.3-2.7,3.9-5.1,3.9c-0.4,0-0.9-0.1-1.4-0.2
		c-2.8-0.8-4.4-3.6-3.7-6.4l5.9-22l-13,7.5l-5.8,21.7c-0.6,2.3-2.7,3.9-5.1,3.9c-0.4,0-0.9-0.1-1.4-0.2c-2.8-0.8-4.4-3.6-3.7-6.4
		l3.1-11.6l-6.5,3.8c-0.8,0.5-1.7,0.7-2.6,0.7c-1.8,0-3.6-0.9-4.5-2.6c-1.4-2.5-0.6-5.7,1.9-7.2l6.7-3.9l-11.9-3.2
		c-2.8-0.8-4.4-3.6-3.7-6.4c0.7-2.8,3.6-4.5,6.4-3.7l22.1,5.9l13-7.5l-22.3-6c-2.8-0.8-4.5-3.6-3.7-6.4s3.6-4.5,6.4-3.7l32.4,8.7
		l24.5-14.2l-24.7-14.3l-32.1,8.6c-0.4,0.1-0.9,0.2-1.4,0.2c-2.3,0-4.4-1.5-5.1-3.9c-0.8-2.8,0.9-5.7,3.7-6.4l22-5.9l-13-7.5
		l-21.7,5.8c-0.5,0.1-0.9,0.2-1.4,0.2c-2.3,0-4.4-1.5-5.1-3.9c-0.8-2.8,0.9-5.7,3.7-6.4l11.6-3.1l-6.5-3.8c-2.5-1.4-3.4-4.6-1.9-7.2
		c1.4-2.5,4.6-3.4,7.2-1.9l6.7,3.9l-3.2-11.9c-0.8-2.8,0.9-5.7,3.7-6.4s5.7,0.9,6.4,3.7l5.9,22.1l13,7.5l-6-22.3
		c-0.8-2.8,0.9-5.7,3.7-6.4s5.7,0.9,6.4,3.7l8.7,32.4l24.3,14.2v-29.7l-22.6-22.6c-2.02-1.92-2.02-5.19,0-7.12
		c2.02-1.92,5.19-1.92,7.12,0l15.48,15.48V213.9l-15.29-15.29c-1.92-2.02-1.92-5.19,0-7.12c2.02-2.02,5.19-2.02,7.12,0l8.17,8.17
		v-7.21c0-2.79,2.21-5,5-5l0.31,188.85C245.55,376.31,243.2,373.96,243.2,371L243.2,371z M241,150.73c-0.2-5.5,4.3-10,9.8-10
		s10,4.5,10,10s-4.4,9.9-9.9,9.9S241,156.13,241,150.73L241,150.73z M307.2,297.66c5,4.4,11.7,8.8,19.1,13.3
		c-8.4-2.1-16.3-3.7-22.9-4.1c-1.5-0.1-3,0.7-3.8,2c-0.7,1.2-0.8,2.6-0.3,3.9c4.8,10.8,13,23.1,22.5,35.9
		c-12.8-9.5-25.1-17.7-35.9-22.5c-1.3-0.6-2.7-0.5-3.9,0.3c-1.3,0.8-2.1,2.3-2,3.8c0.4,6.7,2.1,14.5,4.1,22.9
		c-4.5-7.4-8.9-14.1-13.3-19.1c-1-1.2-2.6-1.7-4.1-1.3c-1.3,0.3-2.5,1.3-3,2.6c-4.2,11-7.1,25.5-9.5,41.3v-46.4
		c30.3,0,54.2-27.4,48.2-58.8c-3.7-19.5-19.1-34.9-38.6-38.6c-3.3-0.6-6.5-0.9-9.6-0.9v-46.4c2.4,15.8,5.2,30.3,9.5,41.3
		c0.5,1.3,1.6,2.2,3,2.6c1.5,0.4,3.1-0.1,4.1-1.3c4.4-5,8.8-11.7,13.3-19.1c-2.1,8.4-3.7,16.3-4.1,22.9c-0.1,1.6,0.7,3,2,3.8
		c1.2,0.7,2.6,0.8,3.9,0.3c10.8-4.8,23.1-13,35.9-22.5c-9.5,12.8-17.7,25.1-22.5,35.9c-0.6,1.3-0.5,2.7,0.3,3.9
		c0.8,1.3,2.3,2.1,3.8,2c6.7-0.4,14.5-2.1,22.9-4.1c-7.4,4.5-14.1,8.9-19.1,13.3c-1.2,1-1.7,2.6-1.3,4.1c0.3,1.3,1.3,2.5,2.6,3
		c11,4.2,25.5,7.1,41.3,9.5c-15.8,2.4-30.3,5.2-41.3,9.5c-1.3,0.5-2.2,1.6-2.6,3C305.6,295.06,306.1,296.56,307.2,297.66
		L307.2,297.66z M254.2,324.17v-85.5c23.6,0,42.8,19.3,42.7,43c-0.1,23.4-19.1,42.3-42.5,42.5H254.2z"/>
</g>
</svg>
