<?xml version="1.0" encoding="utf-8"?>
<!-- Generator: Adobe Illustrator 26.3.1, SVG Export Plug-In . SVG Version: 6.00 Build 0)  -->
<svg version="1.1" id="Layer_1" xmlns="http://www.w3.org/2000/svg" xmlns:xlink="http://www.w3.org/1999/xlink" x="0px" y="0px"
	 viewBox="0 0 500 500" style="enable-background:new 0 0 500 500;" xml:space="preserve">
<style type="text/css">
	.st0{fill:#17325A;}
	.st1{fill:#17325A;stroke:#010101;stroke-width:3.12;stroke-miterlimit:10;}
	.st2{fill:#010101;}
	.st3{fill:#0B6D38;}
	.st4{fill:#3958A7;stroke:#010101;stroke-width:3.12;stroke-miterlimit:10;}
	.st5{fill:#989898;}
	.st6{fill:#847B7B;}
	.st7{fill:#FFFFFF;}
</style>
<g>
	<path id="color1_00000085959705519644205840000010893791209957630117_" class="st0" d="M441.31,279.46c-0.55,0-1.09,0.05-1.62,0.16
		c-0.54,0.1-1.06,0.27-1.56,0.47c-0.51,0.21-0.98,0.46-1.44,0.77c-0.45,0.3-0.88,0.65-1.26,1.04c-0.39,0.39-0.73,0.81-1.04,1.26
		c-0.31,0.45-0.56,0.93-0.77,1.44c-0.21,0.51-0.37,1.03-0.47,1.56c-0.11,0.54-0.16,1.08-0.03,1.62v79.08L277.9,211.8
		c-0.4-0.37-0.82-0.7-1.28-0.99c-0.46-0.29-0.94-0.54-1.44-0.73c-0.51-0.2-1.02-0.35-1.55-0.45c-0.54-0.1-1.07-0.15-1.61-0.15
		c-0.54,0-1.08,0.05-1.61,0.15c-0.54,0.1-1.05,0.26-1.56,0.45c-0.51,0.2-0.98,0.44-1.44,0.73c-0.46,0.29-0.89,0.62-1.28,0.99
		l-49.16,49.17L64.11,108.1c-0.39-0.39-0.81-0.73-1.26-1.04c-0.46-0.31-0.94-0.56-1.44-0.77c-0.51-0.21-1.03-0.37-1.56-0.47
		c-0.54-0.11-1.08-0.16-1.63-0.16s-1.09,0.05-1.62,0.16c-0.54,0.11-1.06,0.27-1.56,0.47c-0.51,0.21-0.99,0.46-1.44,0.77
		c-0.45,0.3-0.88,0.65-1.26,1.03c-0.39,0.39-0.73,0.81-1.04,1.27c-0.3,0.45-0.56,0.93-0.77,1.44c-0.21,0.51-0.36,1.03-0.47,1.56
		c-0.1,0.54-0.16,1.08-0.16,1.62s0.05,1.09,0.16,1.63c0.1,0.54,0.26,1.06,0.47,1.56c0.21,0.51,0.47,0.98,0.77,1.44
		c0.3,0.46,0.65,0.88,1.04,1.27l158.77,158.75c0.4,0.38,0.82,0.71,1.28,1c0.46,0.29,0.94,0.54,1.44,0.74
		c0.51,0.2,1.03,0.35,1.56,0.45c0.53,0.1,1.07,0.16,1.61,0.16c0.54,0,1.08-0.05,1.61-0.16c0.53-0.1,1.05-0.25,1.55-0.45
		c0.51-0.2,0.98-0.45,1.44-0.74c0.46-0.29,0.89-0.62,1.28-1l49.16-49.15l149.91,149.91h-80.55c-0.55-0.01-1.09,0.05-1.62,0.16
		c-0.54,0.1-1.06,0.27-1.56,0.47c-0.51,0.21-0.98,0.46-1.44,0.77c-0.45,0.3-0.88,0.65-1.26,1.03c-0.39,0.39-0.73,0.81-1.04,1.27
		c-0.31,0.45-0.56,0.93-0.77,1.44c-0.21,0.51-0.37,1.03-0.47,1.56c-0.11,0.54-0.16,1.08-0.16,1.62s0.05,1.09,0.16,1.62
		c0.1,0.54,0.27,1.06,0.47,1.56c0.21,0.51,0.46,0.98,0.77,1.44c0.3,0.46,0.65,0.88,1.04,1.27c0.39,0.39,0.81,0.73,1.26,1.04
		c0.45,0.3,0.93,0.56,1.44,0.77c0.51,0.21,1.03,0.37,1.56,0.47c0.54,0.11,1.08,0.16,1.62,0.51h99.94c0.55-0.35,1.09-0.4,1.62-0.51
		c0.54-0.1,1.06-0.26,1.56-0.47c0.51-0.21,0.98-0.46,1.44-0.77c0.45-0.31,0.88-0.65,1.26-1.04c0.39-0.39,0.73-0.81,1.04-1.27
		c0.3-0.45,0.56-0.93,0.77-1.44c0.21-0.51,0.36-1.03,0.47-1.56c0.1-0.54,0.16-1.08,0.63-1.62v-99.94c-0.48-0.55-0.53-1.09-0.64-1.62
		c-0.11-0.53-0.27-1.05-0.47-1.56c-0.21-0.51-0.47-0.98-0.77-1.44c-0.31-0.45-0.65-0.88-1.04-1.26c-0.39-0.39-0.81-0.73-1.26-1.03
		c-0.46-0.3-0.94-0.56-1.44-0.77c-0.5-0.21-1.02-0.37-1.56-0.47C442.4,279.51,441.86,279.46,441.31,279.46z"/>
	<path id="color2_00000023266880918176034010000012942778297556468619_" class="st7" d="M231.68,135.73l69.31,130.45
		c20.38,38.34,5.86,85.98-32.42,106.39c-11.75,6.27-24.38,9.24-36.82,9.24c-28.09,0-55.27-15.14-69.39-41.71
		c-12.66-23.83-11.61-51.67,0-73.91L231.68,135.73 M231.68,121.22c-5.36,0-10.28,2.96-12.8,7.7l-69.31,130.44
		c-0.02,0.03-0.03,0.06-0.05,0.09c-14.41,27.59-14.39,60.29,0.05,87.46c16.19,30.47,47.68,49.41,82.18,49.41
		c15.12,0,30.21-3.78,43.64-10.94c21.93-11.69,38.01-31.24,45.26-55.05c7.25-23.8,4.82-49.01-6.85-70.97l-69.32-130.45
		C241.95,124.17,237.03,121.22,231.68,121.22z"/>
	<path id="color1_00000147196021133216579730000001565041809993443518_" class="st0" d="M307.39,262.77l-69.32-130.44
		c-1.26-2.37-3.72-3.85-6.4-3.85c-2.68,0-5.14,1.48-6.4,3.85l-69.34,130.49c-13.3,25.47-13.29,55.63,0.03,80.69
		c14.93,28.1,43.97,45.56,75.78,45.56c13.94,0,27.85-3.49,40.23-10.09c20.22-10.78,35.05-28.81,41.73-50.76
		C320.39,306.27,318.15,283.03,307.39,262.77z M245.73,361.83l-2.06-5.17c35.02-13.95,49.73-48.16,35.78-83.19l5.17-2.06
		C299.55,308.88,283.19,346.9,245.73,361.83z"/>
	<path id="color2" class="st7" d="M326.97,118.13l39.7,74.71c11.67,21.96,3.35,49.24-18.57,60.93c-6.73,3.59-13.96,5.29-21.09,5.29
		c-16.09,0-31.65-8.67-39.73-23.89c-7.25-13.65-6.65-29.59,0-42.33L326.97,118.13 M326.97,103.61c-5.36,0-10.28,2.96-12.8,7.7
		l-39.69,74.7c-0.02,0.03-0.04,0.06-0.05,0.09c-9.2,17.62-9.18,38.51,0.05,55.88c10.35,19.48,30.48,31.59,52.53,31.59
		c9.67,0,19.32-2.42,27.9-6.99c14.02-7.47,24.3-19.97,28.93-35.19c4.64-15.22,3.08-31.33-4.38-45.38l-39.7-74.71
		C337.24,106.57,332.32,103.61,326.97,103.61z"/>
	<path id="color1_00000161600776077730359130000004995913839809414798_" class="st0" d="M373.06,189.42l-39.7-74.7
		c-1.26-2.37-3.72-3.85-6.4-3.85c-2.68,0-5.14,1.48-6.4,3.85l-39.72,74.75c-8.09,15.49-8.08,33.85,0.03,49.1
		c9.09,17.11,26.77,27.73,46.13,27.73c8.49,0,16.96-2.12,24.5-6.14c12.31-6.56,21.34-17.54,25.41-30.9
		C380.98,215.91,379.61,201.76,373.06,189.42z M330.21,247.52l-1.27-3.18c21.55-8.59,30.6-29.64,22.02-51.19l3.19-1.27
		C363.33,214.93,353.26,238.34,330.21,247.52z"/>
</g>
</svg>
