<?xml version="1.0" encoding="utf-8"?>
<!-- Generator: Adobe Illustrator 26.3.1, SVG Export Plug-In . SVG Version: 6.00 Build 0)  -->
<svg version="1.1" id="Layer_1" xmlns="http://www.w3.org/2000/svg" xmlns:xlink="http://www.w3.org/1999/xlink" x="0px" y="0px"
	 viewBox="0 0 500 500" style="enable-background:new 0 0 500 500;" xml:space="preserve">
<style type="text/css">
	.st0{fill:#17325A;}
	.st1{fill:#17325A;stroke:#010101;stroke-width:3.12;stroke-miterlimit:10;}
	.st2{fill:#010101;}
	.st3{fill:#0B6D38;}
	.st4{fill:#3958A7;stroke:#010101;stroke-width:3.12;stroke-miterlimit:10;}
	.st5{fill:#989898;}
	.st6{fill:#847B7B;}
	.st7{fill:#FFFFFF;}
</style>
<g>
	<path id="color1_00000075844993505762819500000000289196235975047555_" class="st0" d="M179.5,104.16v-8
		c0-9.54,8.27-17.01,17.92-15.89c8.12,0.95,14.08,8.13,14.08,16.3v7.59c0,8.8-7.1,16-16,16C186.6,120.16,179.5,112.96,179.5,104.16z
		 M164,143.09c7.95,0,14.5-6.44,14.5-14.5v-7.25c0-8.77-7.84-15.83-17.03-14.29c-6.99,1.18-11.97,7.46-11.97,14.55v6.99
		C149.5,136.54,155.94,143.09,164,143.09z M264.06,356.46c-1.1-0.7-2.4-1.1-3.8-1.1c-1,0-2,0.2-2.9,0.6c-0.9,0.4-1.6,1-2.3,1.7
		c-0.6,0.7-1.1,1.7-1.5,2.8c-0.4,1.1-0.5,2.4-0.5,3.9s0.2,2.7,0.5,3.9c0.4,1.2,0.9,2.1,1.5,2.9c0.6,0.8,1.4,1.3,2.3,1.7
		c0.9,0.4,1.8,0.6,2.8,0.6c1.3,0,2.5-0.3,3.6-1s2-1.7,2.6-3c0.8-1.4,1.2-3.1,1.2-5.1c0-1.8-0.3-3.5-0.9-4.8
		C266.06,358.16,265.16,357.16,264.06,356.46z M317.96,375.06c0.6,13.6-10,25.2-23.7,25.8c-2.7,0.2-5.5-0.2-8.2-1
		c-1.4-0.4-2.9,0.4-3.4,1.8c-2.2,6.3-6.2,11.8-11.5,15.8c-5.4,4.2-11.9,6.5-18.8,6.8c-8.6,0.3-16.9-2.5-23.4-8s-10.7-13.1-11.7-21.5
		c-0.1-0.8-0.5-1.5-1.2-2c-0.5-0.3-1-0.5-1.6-0.5c-0.2,0-0.5,0.1-0.6,0.1c-1.3,0.4-2.7,0.5-4,0.6c-5.2,0.2-10.3-1.6-14.1-5.1
		s-6.1-8.3-6.3-13.5c-0.4-9.9,6.7-18.6,16.5-20.1c0.8-0.2,1.5-0.6,1.9-1.3c0.4-0.7,0.5-1.5,0.3-2.3c-0.6-2.3-1-4.6-1.1-6.8
		c-0.4-8,2.4-15.6,7.8-21.5c5.4-5.9,12.8-9.3,20.8-9.7c5.8-0.3,11.5,1.1,16.4,4c4.8,2.8,8.7,6.9,11.4,11.8c0.4,0.7,1.1,1.3,2,1.4
		c0.9,0.2,1.8-0.1,2.4-0.7c3.9-3.6,8.9-5.7,14.1-5.9c12.2-0.6,22.5,8.9,23.1,21c0.1,2.4-0.2,4.9-0.9,7.2c-0.4,1.2,0.2,2.6,1.3,3.2
		C312.86,358.96,317.56,366.56,317.96,375.06L317.96,375.06z M244.46,369.06c0-0.6-0.3-1.1-0.7-1.7c-0.5-0.4-1-0.6-1.6-0.6
		c-0.8,0-1.3,0.2-1.6,0.6c-0.3,0.4-0.6,0.9-0.8,1.6c-0.5,1.4-1.3,2.5-2.3,3.2c-1.1,0.7-2.3,1.1-3.8,1.1c-1.4,0-2.6-0.4-3.6-1
		c-1.1-0.6-1.9-1.6-2.4-2.9s-0.8-2.9-0.8-4.9c0-2.9,0.6-5.2,1.9-6.8c1.3-1.6,3-2.4,5.1-2.4c1.4,0,2.5,0.4,3.4,1
		c1,0.6,1.7,1.6,2.4,2.8c0.4,0.8,0.8,1.3,1.1,1.6c0.4,0.3,0.8,0.5,1.5,0.5c0.6,0,1.1-0.2,1.5-0.7c0.4-0.5,0.6-1,0.6-1.6
		c0-1.1-0.4-2.2-1.3-3.4c-0.9-1.2-2.1-2.2-3.7-3c-1.6-0.8-3.4-1.2-5.5-1.2c-1.7,0-3.3,0.3-4.8,0.9s-2.8,1.5-3.9,2.6
		c-1.2,1.1-2,2.5-2.6,4.1c-0.6,1.6-0.9,3.5-0.9,5.5c0,1.3,0.2,2.5,0.4,3.6c0.3,1.1,0.6,2.1,1.1,3.1s1,1.9,1.7,2.7
		c0.8,0.8,1.6,1.6,2.5,2.1c0.9,0.6,1.9,1,3,1.2c1.2,0.3,2.4,0.4,3.7,0.4c1.7,0,3.3-0.2,4.6-0.8c1.3-0.6,2.4-1.3,3.3-2.2
		c0.9-0.9,1.5-1.8,1.9-2.8C244.26,370.76,244.46,369.86,244.46,369.06L244.46,369.06z M272.86,364.36c0-2.6-0.5-4.9-1.5-6.9
		c-1-1.9-2.4-3.4-4.3-4.5s-4.2-1.6-6.8-1.6c-2,0-3.7,0.3-5.1,0.9c-1.5,0.6-2.9,1.5-3.9,2.6s-1.8,2.5-2.4,4.1
		c-0.5,1.7-0.8,3.4-0.8,5.4s0.3,3.7,0.8,5.3c0.6,1.6,1.4,3,2.4,4.2s2.4,2,3.9,2.7s3.3,1,5.3,1s3.8-0.4,5.3-1s2.8-1.5,3.9-2.7
		c1.1-1.1,1.9-2.5,2.4-4.1C272.56,368.06,272.86,366.36,272.86,364.36z M286.21,378.35c-0.38-0.29-0.95-0.48-1.62-0.48h-2.67
		c0.29-0.19,0.57-0.48,0.86-0.76c0.95-0.76,1.52-1.33,1.9-1.62c0.48-0.38,0.86-0.95,1.24-1.62c0.48-0.76,0.67-1.52,0.67-2.48
		c0-0.57-0.1-1.14-0.29-1.71c-0.19-0.57-0.57-1.05-0.95-1.43s-0.86-0.76-1.43-0.95c-1.43-0.57-3.52-0.67-5.05-0.1
		c-0.67,0.29-1.24,0.67-1.71,1.05c-0.48,0.48-0.76,0.95-1.05,1.52c-0.29,0.57-0.38,1.05-0.38,1.62c0,0.76,0.29,1.14,0.57,1.43
		c0.38,0.38,0.86,0.57,1.33,0.57c0.76,0,1.24-0.38,1.43-0.67c0.19-0.29,0.48-0.67,0.67-1.24c0.1-0.29,0.19-0.48,0.19-0.57
		c0.48-0.67,1.14-0.76,1.71-0.48c0.19,0.1,0.29,0.19,0.38,0.38c0.1,0.19,0.1,0.38,0.1,0.57s-0.1,0.48-0.19,0.76
		c-0.1,0.29-0.29,0.57-0.57,0.86s-0.67,0.57-1.05,0.95c-0.29,0.19-0.76,0.57-1.43,1.24c-0.67,0.57-1.43,1.33-2.19,2.19
		c-0.29,0.29-0.48,0.67-0.67,1.05c-0.19,0.48-0.29,0.86-0.29,1.24c0,0.57,0.19,1.05,0.67,1.52c0.48,0.38,0.95,0.67,1.71,0.67h6.57
		c0.67,0,1.14-0.19,1.52-0.57c0.38-0.38,0.57-0.86,0.57-1.33C286.88,379.21,286.69,378.64,286.21,378.35L286.21,378.35z
		 M344.86,196.56c4.6,26.3-2,52-16.3,72.2c-10,14.2-14.2,31.7-11.2,48.8l8,45.1c7,39.5-19.5,77-59,83.7
		c-39.3,6.6-76.3-20.3-83.2-59.5l-27.7-157c-9.4-53.5,27.4-104.5,81.7-112C288.16,110.86,335.96,145.86,344.86,196.56L344.86,196.56
		z M310.06,351.06c0.5-2.3,0.7-4.6,0.6-6.9c-0.7-15.2-13.7-27-28.9-26.3c-5.4,0.2-10.6,2.1-15,5.2c-3-4.6-7-8.3-11.8-11.1
		c-5.9-3.4-12.7-5-19.5-4.7c-9.5,0.4-18.3,4.5-24.7,11.5c-6.4,7-9.7,16-9.3,25.5c0,1.7,0.3,3.5,0.6,5.2
		c-11.1,3.1-18.8,13.4-18.3,25.2c0.3,6.7,3.3,12.9,8.2,17.4c5,4.5,11.4,6.8,18.1,6.5c0.7,0,1.4-0.1,2.1-0.2
		c1.7,8.6,6.3,16.4,13.1,22.1c7.1,6,16.1,9.3,25.4,9.3l1.9,0.1c8-0.4,15.6-3.1,22-7.9c5.5-4.2,9.8-9.7,12.5-16
		c2.5,0.5,5.1,0.7,7.6,0.6c16.8-0.7,29.8-14.9,29-31.6C323.16,365.16,318.16,356.46,310.06,351.06L310.06,351.06z M316.76,160.86
		c-48.6-17.9-117.2-10.5-135.2,46.1c-5.4,17.1-6,36.9-3,58.5c0.2,0.8,1.4,0.7,1.4-0.1c3.2-66.2,39.6-98.2,107.6-97.9
		c-51,3.7-80.6,31.7-95.1,77c92.4,36.2,87.2-47.3,125.2-77.9C319.66,164.96,319.16,161.76,316.76,160.86z M350.5,97.64
		c0-11.64-9.38-22.83-20.93-24.28c-14.55-1.83-27.07,9.59-27.07,23.91v11.65c0,12.69,9.67,23.55,22.33,24.4
		c14.06,0.94,25.67-10.09,25.67-24.04V97.64z M214.5,84.01c0,8.82,6.11,16.65,14.77,18.33c11.87,2.31,22.11-6.71,22.23-18.14v-9.03
		c0-8.41-5.54-16.01-13.7-18.07c-12.28-3.1-23.3,6.12-23.3,17.89V84.01z M298.5,82.26v-9.29c0-9.97-7.18-18.71-17.05-20.12
		c-12.37-1.76-22.95,7.77-22.95,19.79v9.95c0,12.02,10.58,21.55,22.95,19.79C291.32,100.97,298.5,92.23,298.5,82.26z"/>
</g>
</svg>
